%TF.GenerationSoftware,KiCad,Pcbnew,(6.0.8)*%
%TF.CreationDate,2022-10-31T04:00:38-03:00*%
%TF.ProjectId,pwr_mgmt,7077725f-6d67-46d7-942e-6b696361645f,0*%
%TF.SameCoordinates,Original*%
%TF.FileFunction,Copper,L2,Bot*%
%TF.FilePolarity,Positive*%
%FSLAX46Y46*%
G04 Gerber Fmt 4.6, Leading zero omitted, Abs format (unit mm)*
G04 Created by KiCad (PCBNEW (6.0.8)) date 2022-10-31 04:00:38*
%MOMM*%
%LPD*%
G01*
G04 APERTURE LIST*
G04 Aperture macros list*
%AMRoundRect*
0 Rectangle with rounded corners*
0 $1 Rounding radius*
0 $2 $3 $4 $5 $6 $7 $8 $9 X,Y pos of 4 corners*
0 Add a 4 corners polygon primitive as box body*
4,1,4,$2,$3,$4,$5,$6,$7,$8,$9,$2,$3,0*
0 Add four circle primitives for the rounded corners*
1,1,$1+$1,$2,$3*
1,1,$1+$1,$4,$5*
1,1,$1+$1,$6,$7*
1,1,$1+$1,$8,$9*
0 Add four rect primitives between the rounded corners*
20,1,$1+$1,$2,$3,$4,$5,0*
20,1,$1+$1,$4,$5,$6,$7,0*
20,1,$1+$1,$6,$7,$8,$9,0*
20,1,$1+$1,$8,$9,$2,$3,0*%
G04 Aperture macros list end*
%ADD10C,0.300000*%
%TA.AperFunction,NonConductor*%
%ADD11C,0.300000*%
%TD*%
%TA.AperFunction,ComponentPad*%
%ADD12C,5.400000*%
%TD*%
%TA.AperFunction,ComponentPad*%
%ADD13RoundRect,0.750000X-1.750000X-0.750000X1.750000X-0.750000X1.750000X0.750000X-1.750000X0.750000X0*%
%TD*%
%TA.AperFunction,ComponentPad*%
%ADD14R,3.960000X1.980000*%
%TD*%
%TA.AperFunction,ComponentPad*%
%ADD15O,3.960000X1.980000*%
%TD*%
%TA.AperFunction,ComponentPad*%
%ADD16R,2.800000X2.800000*%
%TD*%
%TA.AperFunction,Conductor*%
%ADD17C,0.760000*%
%TD*%
G04 APERTURE END LIST*
D10*
D11*
X238750000Y-113642857D02*
X238535714Y-113714285D01*
X238464285Y-113785714D01*
X238392857Y-113928571D01*
X238392857Y-114142857D01*
X238464285Y-114285714D01*
X238535714Y-114357142D01*
X238678571Y-114428571D01*
X239250000Y-114428571D01*
X239250000Y-112928571D01*
X238750000Y-112928571D01*
X238607142Y-113000000D01*
X238535714Y-113071428D01*
X238464285Y-113214285D01*
X238464285Y-113357142D01*
X238535714Y-113500000D01*
X238607142Y-113571428D01*
X238750000Y-113642857D01*
X239250000Y-113642857D01*
X237464285Y-112928571D02*
X237178571Y-112928571D01*
X237035714Y-113000000D01*
X236892857Y-113142857D01*
X236821428Y-113428571D01*
X236821428Y-113928571D01*
X236892857Y-114214285D01*
X237035714Y-114357142D01*
X237178571Y-114428571D01*
X237464285Y-114428571D01*
X237607142Y-114357142D01*
X237750000Y-114214285D01*
X237821428Y-113928571D01*
X237821428Y-113428571D01*
X237750000Y-113142857D01*
X237607142Y-113000000D01*
X237464285Y-112928571D01*
X236392857Y-112928571D02*
X235535714Y-112928571D01*
X235964285Y-114428571D02*
X235964285Y-112928571D01*
D12*
%TO.P,REF\u002A\u002A,1*%
%TO.N,N/C*%
X118500000Y-87000000D03*
%TD*%
%TO.P,REF\u002A\u002A,1*%
%TO.N,N/C*%
X118500000Y-153000000D03*
%TD*%
%TO.P,REF\u002A\u002A,1*%
%TO.N,N/C*%
X237750000Y-153000000D03*
%TD*%
%TO.P,REF\u002A\u002A,1*%
%TO.N,N/C*%
X237750000Y-87000000D03*
%TD*%
D13*
%TO.P,REF\u002A\u002A,1*%
%TO.N,N/C*%
X165300000Y-93400000D03*
%TO.P,REF\u002A\u002A,2*%
%TO.N,GND*%
X165300000Y-103600000D03*
%TO.P,REF\u002A\u002A,3*%
%TO.N,N/C*%
X139700000Y-93400000D03*
%TO.P,REF\u002A\u002A,4*%
%TO.N,GND*%
X139700000Y-103600000D03*
%TD*%
D14*
%TO.P,REF\u002A\u002A,1*%
%TO.N,N/C*%
X121000000Y-135000000D03*
D15*
%TO.P,REF\u002A\u002A,2*%
X121000000Y-140000000D03*
%TD*%
D16*
%TO.P,USB_CHRG\u002A\u002A,1*%
%TO.N,N/C*%
X151415500Y-152717500D03*
%TO.P,USB_CHRG\u002A\u002A,2*%
X165615500Y-152717500D03*
%TO.P,USB_CHRG\u002A\u002A,3*%
X151415500Y-129817500D03*
%TO.P,USB_CHRG\u002A\u002A,4*%
%TO.N,GND*%
X165915500Y-129817500D03*
%TO.P,USB_CHRG\u002A\u002A,5*%
%TO.N,N/C*%
X154915500Y-129817500D03*
%TO.P,USB_CHRG\u002A\u002A,6*%
X162515500Y-129817500D03*
%TD*%
D14*
%TO.P,REF\u002A\u002A,1*%
%TO.N,N/C*%
X121000000Y-95235000D03*
D15*
%TO.P,REF\u002A\u002A,2*%
%TO.N,GND*%
X121000000Y-100235000D03*
%TD*%
D17*
%TO.N,*%
X135050000Y-88750000D02*
X139700000Y-93400000D01*
X124610000Y-88750000D02*
X135050000Y-88750000D01*
X121000000Y-92360000D02*
X124610000Y-88750000D01*
X121000000Y-95235000D02*
X121000000Y-92360000D01*
X121000000Y-140000000D02*
X126500000Y-145500000D01*
X154915500Y-129817500D02*
X154915500Y-134834500D01*
X132500000Y-139750000D02*
X127750000Y-135000000D01*
X162515500Y-135734500D02*
X162515500Y-129817500D01*
X144250000Y-114450000D02*
X165300000Y-93400000D01*
X144250000Y-126250000D02*
X144250000Y-114450000D01*
X151415500Y-129817500D02*
X147817500Y-129817500D01*
X150000000Y-139750000D02*
X132500000Y-139750000D01*
X126500000Y-145500000D02*
X152750000Y-145500000D01*
X147817500Y-129817500D02*
X144250000Y-126250000D01*
%TO.N,GND*%
X125250000Y-107750000D02*
X135550000Y-107750000D01*
%TO.N,*%
X154915500Y-134834500D02*
X150000000Y-139750000D01*
%TO.N,GND*%
X135550000Y-107750000D02*
X139700000Y-103600000D01*
X165915500Y-129817500D02*
X165915500Y-104215500D01*
X121000000Y-100235000D02*
X121000000Y-103500000D01*
%TO.N,*%
X152750000Y-145500000D02*
X162515500Y-135734500D01*
X127750000Y-135000000D02*
X121000000Y-135000000D01*
%TO.N,GND*%
X121000000Y-103500000D02*
X125250000Y-107750000D01*
%TD*%
%TA.AperFunction,Conductor*%
%TO.N,GND*%
G36*
X242442121Y-82520002D02*
G01*
X242488614Y-82573658D01*
X242500000Y-82626000D01*
X242500000Y-157374000D01*
X242479998Y-157442121D01*
X242426342Y-157488614D01*
X242374000Y-157500000D01*
X112626000Y-157500000D01*
X112557879Y-157479998D01*
X112511386Y-157426342D01*
X112500000Y-157374000D01*
X112500000Y-153000000D01*
X114794422Y-153000000D01*
X114814722Y-153387338D01*
X114875398Y-153770433D01*
X114975786Y-154145087D01*
X115114786Y-154507194D01*
X115290875Y-154852789D01*
X115502124Y-155178084D01*
X115746219Y-155479516D01*
X116020484Y-155753781D01*
X116321916Y-155997876D01*
X116647211Y-156209125D01*
X116992806Y-156385214D01*
X117354913Y-156524214D01*
X117729567Y-156624602D01*
X117933201Y-156656854D01*
X118109414Y-156684764D01*
X118109422Y-156684765D01*
X118112662Y-156685278D01*
X118500000Y-156705578D01*
X118887338Y-156685278D01*
X118890578Y-156684765D01*
X118890586Y-156684764D01*
X119066799Y-156656854D01*
X119270433Y-156624602D01*
X119645087Y-156524214D01*
X120007194Y-156385214D01*
X120352789Y-156209125D01*
X120678084Y-155997876D01*
X120979516Y-155753781D01*
X121253781Y-155479516D01*
X121497876Y-155178084D01*
X121709125Y-154852789D01*
X121885214Y-154507194D01*
X122012610Y-154175316D01*
X149015000Y-154175316D01*
X149025734Y-154295587D01*
X149081759Y-154490970D01*
X149175927Y-154671096D01*
X149304391Y-154828609D01*
X149461904Y-154957073D01*
X149642030Y-155051241D01*
X149837413Y-155107266D01*
X149869045Y-155110089D01*
X149954891Y-155117751D01*
X149954897Y-155117751D01*
X149957684Y-155118000D01*
X152873316Y-155118000D01*
X152876103Y-155117751D01*
X152876109Y-155117751D01*
X152961955Y-155110089D01*
X152993587Y-155107266D01*
X153188970Y-155051241D01*
X153369096Y-154957073D01*
X153526609Y-154828609D01*
X153655073Y-154671096D01*
X153749241Y-154490970D01*
X153805266Y-154295587D01*
X153816000Y-154175316D01*
X163215000Y-154175316D01*
X163225734Y-154295587D01*
X163281759Y-154490970D01*
X163375927Y-154671096D01*
X163504391Y-154828609D01*
X163661904Y-154957073D01*
X163842030Y-155051241D01*
X164037413Y-155107266D01*
X164069045Y-155110089D01*
X164154891Y-155117751D01*
X164154897Y-155117751D01*
X164157684Y-155118000D01*
X167073316Y-155118000D01*
X167076103Y-155117751D01*
X167076109Y-155117751D01*
X167161955Y-155110089D01*
X167193587Y-155107266D01*
X167388970Y-155051241D01*
X167569096Y-154957073D01*
X167726609Y-154828609D01*
X167855073Y-154671096D01*
X167949241Y-154490970D01*
X168005266Y-154295587D01*
X168016000Y-154175316D01*
X168016000Y-153000000D01*
X234044422Y-153000000D01*
X234064722Y-153387338D01*
X234125398Y-153770433D01*
X234225786Y-154145087D01*
X234364786Y-154507194D01*
X234540875Y-154852789D01*
X234752124Y-155178084D01*
X234996219Y-155479516D01*
X235270484Y-155753781D01*
X235571916Y-155997876D01*
X235897211Y-156209125D01*
X236242806Y-156385214D01*
X236604913Y-156524214D01*
X236979567Y-156624602D01*
X237183201Y-156656854D01*
X237359414Y-156684764D01*
X237359422Y-156684765D01*
X237362662Y-156685278D01*
X237750000Y-156705578D01*
X238137338Y-156685278D01*
X238140578Y-156684765D01*
X238140586Y-156684764D01*
X238316799Y-156656854D01*
X238520433Y-156624602D01*
X238895087Y-156524214D01*
X239257194Y-156385214D01*
X239602789Y-156209125D01*
X239928084Y-155997876D01*
X240229516Y-155753781D01*
X240503781Y-155479516D01*
X240747876Y-155178084D01*
X240959125Y-154852789D01*
X241135214Y-154507194D01*
X241274214Y-154145087D01*
X241374602Y-153770433D01*
X241435278Y-153387338D01*
X241455578Y-153000000D01*
X241435278Y-152612662D01*
X241374602Y-152229567D01*
X241274214Y-151854913D01*
X241135214Y-151492806D01*
X240959125Y-151147211D01*
X240747876Y-150821916D01*
X240503781Y-150520484D01*
X240229516Y-150246219D01*
X239928084Y-150002124D01*
X239602789Y-149790875D01*
X239257194Y-149614786D01*
X238895087Y-149475786D01*
X238520433Y-149375398D01*
X238316799Y-149343146D01*
X238140586Y-149315236D01*
X238140578Y-149315235D01*
X238137338Y-149314722D01*
X237750000Y-149294422D01*
X237362662Y-149314722D01*
X237359422Y-149315235D01*
X237359414Y-149315236D01*
X237183201Y-149343146D01*
X236979567Y-149375398D01*
X236604913Y-149475786D01*
X236242806Y-149614786D01*
X235897211Y-149790875D01*
X235571916Y-150002124D01*
X235270484Y-150246219D01*
X234996219Y-150520484D01*
X234752124Y-150821916D01*
X234540875Y-151147211D01*
X234364786Y-151492806D01*
X234225786Y-151854913D01*
X234125398Y-152229567D01*
X234064722Y-152612662D01*
X234044422Y-153000000D01*
X168016000Y-153000000D01*
X168016000Y-151259684D01*
X168005266Y-151139413D01*
X167949241Y-150944030D01*
X167855073Y-150763904D01*
X167726609Y-150606391D01*
X167569096Y-150477927D01*
X167388970Y-150383759D01*
X167193587Y-150327734D01*
X167161955Y-150324911D01*
X167076109Y-150317249D01*
X167076103Y-150317249D01*
X167073316Y-150317000D01*
X164157684Y-150317000D01*
X164154897Y-150317249D01*
X164154891Y-150317249D01*
X164069045Y-150324911D01*
X164037413Y-150327734D01*
X163842030Y-150383759D01*
X163661904Y-150477927D01*
X163504391Y-150606391D01*
X163375927Y-150763904D01*
X163281759Y-150944030D01*
X163225734Y-151139413D01*
X163215000Y-151259684D01*
X163215000Y-154175316D01*
X153816000Y-154175316D01*
X153816000Y-151259684D01*
X153805266Y-151139413D01*
X153749241Y-150944030D01*
X153655073Y-150763904D01*
X153526609Y-150606391D01*
X153369096Y-150477927D01*
X153188970Y-150383759D01*
X152993587Y-150327734D01*
X152961955Y-150324911D01*
X152876109Y-150317249D01*
X152876103Y-150317249D01*
X152873316Y-150317000D01*
X149957684Y-150317000D01*
X149954897Y-150317249D01*
X149954891Y-150317249D01*
X149869045Y-150324911D01*
X149837413Y-150327734D01*
X149642030Y-150383759D01*
X149461904Y-150477927D01*
X149304391Y-150606391D01*
X149175927Y-150763904D01*
X149081759Y-150944030D01*
X149025734Y-151139413D01*
X149015000Y-151259684D01*
X149015000Y-154175316D01*
X122012610Y-154175316D01*
X122024214Y-154145087D01*
X122124602Y-153770433D01*
X122185278Y-153387338D01*
X122205578Y-153000000D01*
X122185278Y-152612662D01*
X122124602Y-152229567D01*
X122024214Y-151854913D01*
X121885214Y-151492806D01*
X121709125Y-151147211D01*
X121497876Y-150821916D01*
X121253781Y-150520484D01*
X120979516Y-150246219D01*
X120678084Y-150002124D01*
X120352789Y-149790875D01*
X120007194Y-149614786D01*
X119645087Y-149475786D01*
X119270433Y-149375398D01*
X119066799Y-149343146D01*
X118890586Y-149315236D01*
X118890578Y-149315235D01*
X118887338Y-149314722D01*
X118500000Y-149294422D01*
X118112662Y-149314722D01*
X118109422Y-149315235D01*
X118109414Y-149315236D01*
X117933201Y-149343146D01*
X117729567Y-149375398D01*
X117354913Y-149475786D01*
X116992806Y-149614786D01*
X116647211Y-149790875D01*
X116321916Y-150002124D01*
X116020484Y-150246219D01*
X115746219Y-150520484D01*
X115502124Y-150821916D01*
X115290875Y-151147211D01*
X115114786Y-151492806D01*
X114975786Y-151854913D01*
X114875398Y-152229567D01*
X114814722Y-152612662D01*
X114794422Y-153000000D01*
X112500000Y-153000000D01*
X112500000Y-139968655D01*
X118014661Y-139968655D01*
X118014905Y-139973090D01*
X118014905Y-139973094D01*
X118017867Y-140026906D01*
X118030151Y-140250113D01*
X118085144Y-140526581D01*
X118178543Y-140792542D01*
X118235990Y-140903132D01*
X118290318Y-141007718D01*
X118308484Y-141042690D01*
X118472375Y-141272034D01*
X118666946Y-141475997D01*
X118888315Y-141650510D01*
X119132064Y-141792090D01*
X119136181Y-141793758D01*
X119136188Y-141793761D01*
X119389197Y-141896240D01*
X119393330Y-141897914D01*
X119666901Y-141965869D01*
X119907301Y-141990500D01*
X120985988Y-141990500D01*
X121054109Y-142010502D01*
X121075083Y-142027405D01*
X125485874Y-146438196D01*
X125491944Y-146444711D01*
X125534084Y-146493273D01*
X125616637Y-146560962D01*
X125617807Y-146561936D01*
X125699384Y-146630752D01*
X125703986Y-146633457D01*
X125707505Y-146635949D01*
X125711122Y-146638435D01*
X125715249Y-146641819D01*
X125719888Y-146644460D01*
X125719890Y-146644461D01*
X125807893Y-146694555D01*
X125809389Y-146695420D01*
X125901349Y-146749481D01*
X125906343Y-146751373D01*
X125910285Y-146753262D01*
X125914213Y-146755077D01*
X125918853Y-146757718D01*
X125985652Y-146781965D01*
X126019098Y-146794105D01*
X126020748Y-146794717D01*
X126052712Y-146806827D01*
X126120432Y-146832484D01*
X126125674Y-146833508D01*
X126129877Y-146834705D01*
X126134052Y-146835831D01*
X126139073Y-146837654D01*
X126144328Y-146838604D01*
X126144331Y-146838605D01*
X126243937Y-146856616D01*
X126245667Y-146856941D01*
X126345131Y-146876366D01*
X126345140Y-146876367D01*
X126350368Y-146877388D01*
X126355701Y-146877514D01*
X126360795Y-146878067D01*
X126361397Y-146878166D01*
X126361401Y-146878135D01*
X126365529Y-146878603D01*
X126369614Y-146879342D01*
X126373761Y-146879538D01*
X126373765Y-146879538D01*
X126392681Y-146880430D01*
X126392688Y-146880430D01*
X126394169Y-146880500D01*
X126480951Y-146880500D01*
X126483920Y-146880535D01*
X126584582Y-146882907D01*
X126591879Y-146881836D01*
X126610176Y-146880500D01*
X152696308Y-146880500D01*
X152705207Y-146880815D01*
X152764016Y-146884979D01*
X152764019Y-146884979D01*
X152769344Y-146885356D01*
X152830133Y-146879342D01*
X152875460Y-146874858D01*
X152877212Y-146874697D01*
X152935689Y-146869735D01*
X152983441Y-146865683D01*
X152988608Y-146864342D01*
X152992913Y-146863606D01*
X152997175Y-146862816D01*
X153002485Y-146862291D01*
X153105359Y-146834052D01*
X153106946Y-146833628D01*
X153181239Y-146814345D01*
X153205036Y-146808169D01*
X153205037Y-146808168D01*
X153210206Y-146806827D01*
X153215077Y-146804632D01*
X153219229Y-146803170D01*
X153223262Y-146801686D01*
X153228408Y-146800274D01*
X153325043Y-146755110D01*
X153326563Y-146754412D01*
X153337510Y-146749481D01*
X153423813Y-146710604D01*
X153428234Y-146707628D01*
X153432073Y-146705491D01*
X153435824Y-146703334D01*
X153440650Y-146701078D01*
X153528320Y-146640259D01*
X153529694Y-146639321D01*
X153549318Y-146626109D01*
X153618154Y-146579766D01*
X153622018Y-146576080D01*
X153626004Y-146572875D01*
X153626510Y-146572522D01*
X153626485Y-146572491D01*
X153629727Y-146569910D01*
X153633145Y-146567539D01*
X153640492Y-146560854D01*
X153650221Y-146552002D01*
X153650235Y-146551988D01*
X153651327Y-146550995D01*
X153712681Y-146489641D01*
X153714804Y-146487566D01*
X153783814Y-146421733D01*
X153787671Y-146418054D01*
X153790852Y-146413779D01*
X153790857Y-146413773D01*
X153792073Y-146412138D01*
X153804068Y-146398254D01*
X163453696Y-136748626D01*
X163460211Y-136742556D01*
X163504735Y-136703920D01*
X163508773Y-136700416D01*
X163576462Y-136617863D01*
X163577436Y-136616693D01*
X163646252Y-136535116D01*
X163648957Y-136530514D01*
X163651449Y-136526995D01*
X163653935Y-136523378D01*
X163657319Y-136519251D01*
X163710071Y-136426579D01*
X163710936Y-136425084D01*
X163715451Y-136417405D01*
X163764981Y-136333151D01*
X163766873Y-136328157D01*
X163768762Y-136324215D01*
X163770577Y-136320287D01*
X163773218Y-136315647D01*
X163809605Y-136215402D01*
X163810217Y-136213752D01*
X163846092Y-136119062D01*
X163846092Y-136119061D01*
X163847984Y-136114068D01*
X163849008Y-136108826D01*
X163850205Y-136104623D01*
X163851331Y-136100448D01*
X163853154Y-136095427D01*
X163872116Y-135990563D01*
X163872441Y-135988833D01*
X163891866Y-135889369D01*
X163891867Y-135889360D01*
X163892888Y-135884132D01*
X163893014Y-135878799D01*
X163893567Y-135873705D01*
X163893666Y-135873103D01*
X163893635Y-135873099D01*
X163894103Y-135868971D01*
X163894842Y-135864886D01*
X163895758Y-135845476D01*
X163895930Y-135841819D01*
X163895930Y-135841812D01*
X163896000Y-135840331D01*
X163896000Y-135753549D01*
X163896035Y-135750581D01*
X163898281Y-135655255D01*
X163898407Y-135649918D01*
X163897336Y-135642621D01*
X163896000Y-135624324D01*
X163896000Y-132340156D01*
X163916002Y-132272035D01*
X163969658Y-132225542D01*
X164010799Y-132214655D01*
X164071268Y-132209258D01*
X164093587Y-132207266D01*
X164288970Y-132151241D01*
X164469096Y-132057073D01*
X164626609Y-131928609D01*
X164754447Y-131771864D01*
X164813002Y-131731716D01*
X164852090Y-131725500D01*
X165643385Y-131725500D01*
X165658624Y-131721025D01*
X165659829Y-131719635D01*
X165661500Y-131711952D01*
X165661500Y-131707384D01*
X166169500Y-131707384D01*
X166173975Y-131722623D01*
X166175365Y-131723828D01*
X166183048Y-131725499D01*
X167360169Y-131725499D01*
X167366990Y-131725129D01*
X167417852Y-131719605D01*
X167433104Y-131715979D01*
X167553554Y-131670824D01*
X167569149Y-131662286D01*
X167671224Y-131585785D01*
X167683785Y-131573224D01*
X167760286Y-131471149D01*
X167768824Y-131455554D01*
X167813978Y-131335106D01*
X167817605Y-131319851D01*
X167823131Y-131268986D01*
X167823500Y-131262172D01*
X167823500Y-130089615D01*
X167819025Y-130074376D01*
X167817635Y-130073171D01*
X167809952Y-130071500D01*
X166187615Y-130071500D01*
X166172376Y-130075975D01*
X166171171Y-130077365D01*
X166169500Y-130085048D01*
X166169500Y-131707384D01*
X165661500Y-131707384D01*
X165661500Y-129545385D01*
X166169500Y-129545385D01*
X166173975Y-129560624D01*
X166175365Y-129561829D01*
X166183048Y-129563500D01*
X167805384Y-129563500D01*
X167820623Y-129559025D01*
X167821828Y-129557635D01*
X167823499Y-129549952D01*
X167823499Y-128372831D01*
X167823129Y-128366010D01*
X167817605Y-128315148D01*
X167813979Y-128299896D01*
X167768824Y-128179446D01*
X167760286Y-128163851D01*
X167683785Y-128061776D01*
X167671224Y-128049215D01*
X167569149Y-127972714D01*
X167553554Y-127964176D01*
X167433106Y-127919022D01*
X167417851Y-127915395D01*
X167366986Y-127909869D01*
X167360172Y-127909500D01*
X166187615Y-127909500D01*
X166172376Y-127913975D01*
X166171171Y-127915365D01*
X166169500Y-127923048D01*
X166169500Y-129545385D01*
X165661500Y-129545385D01*
X165661500Y-127927616D01*
X165657025Y-127912377D01*
X165655635Y-127911172D01*
X165647952Y-127909501D01*
X164852090Y-127909501D01*
X164783969Y-127889499D01*
X164754447Y-127863136D01*
X164630642Y-127711335D01*
X164630638Y-127711331D01*
X164626609Y-127706391D01*
X164469096Y-127577927D01*
X164288970Y-127483759D01*
X164093587Y-127427734D01*
X164061955Y-127424911D01*
X163976109Y-127417249D01*
X163976103Y-127417249D01*
X163973316Y-127417000D01*
X161057684Y-127417000D01*
X161054897Y-127417249D01*
X161054891Y-127417249D01*
X160969045Y-127424911D01*
X160937413Y-127427734D01*
X160742030Y-127483759D01*
X160561904Y-127577927D01*
X160404391Y-127706391D01*
X160275927Y-127863904D01*
X160181759Y-128044030D01*
X160125734Y-128239413D01*
X160115000Y-128359684D01*
X160115000Y-131275316D01*
X160125734Y-131395587D01*
X160181759Y-131590970D01*
X160275927Y-131771096D01*
X160404391Y-131928609D01*
X160561904Y-132057073D01*
X160742030Y-132151241D01*
X160937413Y-132207266D01*
X160959732Y-132209258D01*
X161020201Y-132214655D01*
X161086274Y-132240634D01*
X161127813Y-132298210D01*
X161135000Y-132340156D01*
X161135000Y-135110488D01*
X161114998Y-135178609D01*
X161098095Y-135199583D01*
X152215083Y-144082595D01*
X152152771Y-144116621D01*
X152125988Y-144119500D01*
X127124012Y-144119500D01*
X127055891Y-144099498D01*
X127034917Y-144082595D01*
X123855454Y-140903132D01*
X123821428Y-140840820D01*
X123827036Y-140768575D01*
X123895763Y-140590925D01*
X123897366Y-140586782D01*
X123912332Y-140522217D01*
X123960010Y-140316517D01*
X123961016Y-140312178D01*
X123985339Y-140031345D01*
X123985095Y-140026906D01*
X123970094Y-139754330D01*
X123970093Y-139754323D01*
X123969849Y-139749887D01*
X123914856Y-139473419D01*
X123821457Y-139207458D01*
X123691516Y-138957310D01*
X123527625Y-138727966D01*
X123333054Y-138524003D01*
X123111685Y-138349490D01*
X122867936Y-138207910D01*
X122863819Y-138206242D01*
X122863812Y-138206239D01*
X122610803Y-138103760D01*
X122610802Y-138103760D01*
X122606670Y-138102086D01*
X122333099Y-138034131D01*
X122092699Y-138009500D01*
X119938183Y-138009500D01*
X119728820Y-138024324D01*
X119724465Y-138025262D01*
X119724462Y-138025262D01*
X119457597Y-138082716D01*
X119457595Y-138082716D01*
X119453250Y-138083652D01*
X119188788Y-138181217D01*
X118940712Y-138315072D01*
X118713971Y-138482545D01*
X118513090Y-138680296D01*
X118342075Y-138904378D01*
X118204341Y-139150321D01*
X118102634Y-139413218D01*
X118101631Y-139417543D01*
X118101630Y-139417548D01*
X118066578Y-139568772D01*
X118038984Y-139687822D01*
X118014661Y-139968655D01*
X112500000Y-139968655D01*
X112500000Y-136047816D01*
X118019500Y-136047816D01*
X118030234Y-136168087D01*
X118086259Y-136363470D01*
X118180427Y-136543596D01*
X118308891Y-136701109D01*
X118313831Y-136705138D01*
X118363291Y-136745476D01*
X118466404Y-136829573D01*
X118646530Y-136923741D01*
X118841913Y-136979766D01*
X118873545Y-136982589D01*
X118959391Y-136990251D01*
X118959397Y-136990251D01*
X118962184Y-136990500D01*
X123037816Y-136990500D01*
X123040603Y-136990251D01*
X123040609Y-136990251D01*
X123126455Y-136982589D01*
X123158087Y-136979766D01*
X123353470Y-136923741D01*
X123533596Y-136829573D01*
X123636710Y-136745476D01*
X123686169Y-136705138D01*
X123691109Y-136701109D01*
X123819573Y-136543596D01*
X123822529Y-136537942D01*
X123822532Y-136537938D01*
X123869486Y-136448124D01*
X123918772Y-136397022D01*
X123981147Y-136380500D01*
X127125988Y-136380500D01*
X127194109Y-136400502D01*
X127215083Y-136417405D01*
X131485874Y-140688196D01*
X131491944Y-140694711D01*
X131534084Y-140743273D01*
X131538210Y-140746656D01*
X131538215Y-140746661D01*
X131616559Y-140810898D01*
X131617900Y-140812014D01*
X131699384Y-140880751D01*
X131703977Y-140883451D01*
X131707524Y-140885963D01*
X131711127Y-140888439D01*
X131715249Y-140891819D01*
X131719881Y-140894456D01*
X131719883Y-140894457D01*
X131807923Y-140944572D01*
X131809447Y-140945454D01*
X131896741Y-140996773D01*
X131896745Y-140996775D01*
X131901348Y-140999481D01*
X131906345Y-141001374D01*
X131910306Y-141003272D01*
X131914218Y-141005080D01*
X131918853Y-141007718D01*
X131923862Y-141009536D01*
X131923868Y-141009539D01*
X132019121Y-141044114D01*
X132020740Y-141044715D01*
X132120431Y-141082484D01*
X132125665Y-141083506D01*
X132129860Y-141084701D01*
X132134061Y-141085835D01*
X132139073Y-141087654D01*
X132144319Y-141088603D01*
X132144324Y-141088604D01*
X132204330Y-141099454D01*
X132244045Y-141106636D01*
X132245662Y-141106940D01*
X132350367Y-141127387D01*
X132355703Y-141127513D01*
X132360793Y-141128066D01*
X132361401Y-141128156D01*
X132361403Y-141128135D01*
X132365525Y-141128603D01*
X132369614Y-141129342D01*
X132373765Y-141129538D01*
X132373767Y-141129538D01*
X132392681Y-141130430D01*
X132392688Y-141130430D01*
X132394169Y-141130500D01*
X132480993Y-141130500D01*
X132483962Y-141130535D01*
X132584582Y-141132906D01*
X132589861Y-141132131D01*
X132589864Y-141132131D01*
X132590972Y-141131968D01*
X132591874Y-141131836D01*
X132610169Y-141130500D01*
X149946308Y-141130500D01*
X149955207Y-141130815D01*
X150014016Y-141134979D01*
X150014019Y-141134979D01*
X150019344Y-141135356D01*
X150080133Y-141129342D01*
X150125460Y-141124858D01*
X150127212Y-141124697D01*
X150185689Y-141119735D01*
X150233441Y-141115683D01*
X150238608Y-141114342D01*
X150242913Y-141113606D01*
X150247175Y-141112816D01*
X150252485Y-141112291D01*
X150355359Y-141084052D01*
X150356946Y-141083628D01*
X150431239Y-141064345D01*
X150455036Y-141058169D01*
X150455037Y-141058168D01*
X150460206Y-141056827D01*
X150465077Y-141054632D01*
X150469229Y-141053170D01*
X150473262Y-141051686D01*
X150478408Y-141050274D01*
X150575043Y-141005110D01*
X150576563Y-141004412D01*
X150579878Y-141002919D01*
X150673813Y-140960604D01*
X150678234Y-140957628D01*
X150682073Y-140955491D01*
X150685824Y-140953334D01*
X150690650Y-140951078D01*
X150778320Y-140890259D01*
X150779694Y-140889321D01*
X150799318Y-140876109D01*
X150868154Y-140829766D01*
X150872018Y-140826080D01*
X150876004Y-140822875D01*
X150876510Y-140822522D01*
X150876485Y-140822491D01*
X150879727Y-140819910D01*
X150883145Y-140817539D01*
X150890444Y-140810898D01*
X150900221Y-140802002D01*
X150900235Y-140801988D01*
X150901327Y-140800995D01*
X150962681Y-140739641D01*
X150964804Y-140737566D01*
X151033814Y-140671733D01*
X151037671Y-140668054D01*
X151040852Y-140663779D01*
X151040857Y-140663773D01*
X151042073Y-140662138D01*
X151054068Y-140648254D01*
X155853696Y-135848626D01*
X155860211Y-135842556D01*
X155904735Y-135803920D01*
X155908773Y-135800416D01*
X155976462Y-135717863D01*
X155977436Y-135716693D01*
X156046252Y-135635116D01*
X156048957Y-135630514D01*
X156051449Y-135626995D01*
X156053935Y-135623378D01*
X156057319Y-135619251D01*
X156110071Y-135526579D01*
X156110936Y-135525084D01*
X156162276Y-135437752D01*
X156164981Y-135433151D01*
X156166873Y-135428157D01*
X156168762Y-135424215D01*
X156170577Y-135420287D01*
X156173218Y-135415647D01*
X156209605Y-135315402D01*
X156210217Y-135313752D01*
X156246092Y-135219062D01*
X156246092Y-135219061D01*
X156247984Y-135214068D01*
X156249008Y-135208826D01*
X156250205Y-135204623D01*
X156251331Y-135200448D01*
X156253154Y-135195427D01*
X156272116Y-135090563D01*
X156272441Y-135088833D01*
X156291866Y-134989369D01*
X156291867Y-134989360D01*
X156292888Y-134984132D01*
X156293014Y-134978799D01*
X156293567Y-134973705D01*
X156293666Y-134973103D01*
X156293635Y-134973099D01*
X156294103Y-134968971D01*
X156294842Y-134964886D01*
X156296000Y-134940331D01*
X156296000Y-134853549D01*
X156296035Y-134850581D01*
X156298281Y-134755255D01*
X156298407Y-134749918D01*
X156297336Y-134742621D01*
X156296000Y-134724324D01*
X156296000Y-132340156D01*
X156316002Y-132272035D01*
X156369658Y-132225542D01*
X156410799Y-132214655D01*
X156471268Y-132209258D01*
X156493587Y-132207266D01*
X156688970Y-132151241D01*
X156869096Y-132057073D01*
X157026609Y-131928609D01*
X157155073Y-131771096D01*
X157249241Y-131590970D01*
X157305266Y-131395587D01*
X157316000Y-131275316D01*
X157316000Y-128359684D01*
X157305266Y-128239413D01*
X157249241Y-128044030D01*
X157155073Y-127863904D01*
X157026609Y-127706391D01*
X156869096Y-127577927D01*
X156688970Y-127483759D01*
X156493587Y-127427734D01*
X156461955Y-127424911D01*
X156376109Y-127417249D01*
X156376103Y-127417249D01*
X156373316Y-127417000D01*
X153457684Y-127417000D01*
X153454897Y-127417249D01*
X153454891Y-127417249D01*
X153369045Y-127424911D01*
X153337413Y-127427734D01*
X153285524Y-127442613D01*
X153200230Y-127467070D01*
X153130770Y-127467070D01*
X153045476Y-127442613D01*
X152993587Y-127427734D01*
X152961955Y-127424911D01*
X152876109Y-127417249D01*
X152876103Y-127417249D01*
X152873316Y-127417000D01*
X149957684Y-127417000D01*
X149954897Y-127417249D01*
X149954891Y-127417249D01*
X149869045Y-127424911D01*
X149837413Y-127427734D01*
X149642030Y-127483759D01*
X149461904Y-127577927D01*
X149304391Y-127706391D01*
X149175927Y-127863904D01*
X149081759Y-128044030D01*
X149025734Y-128239413D01*
X149025201Y-128245386D01*
X149018345Y-128322201D01*
X148992366Y-128388274D01*
X148934790Y-128429813D01*
X148892844Y-128437000D01*
X148441512Y-128437000D01*
X148373391Y-128416998D01*
X148352417Y-128400095D01*
X145667405Y-125715083D01*
X145633379Y-125652771D01*
X145630500Y-125625988D01*
X145630500Y-116183000D01*
X234242357Y-116183000D01*
X240757643Y-116183000D01*
X240757643Y-111317000D01*
X234242357Y-111317000D01*
X234242357Y-116183000D01*
X145630500Y-116183000D01*
X145630500Y-115074012D01*
X145650502Y-115005891D01*
X145667405Y-114984917D01*
X156242361Y-104409961D01*
X162292001Y-104409961D01*
X162292209Y-104415071D01*
X162303082Y-104548767D01*
X162304852Y-104559320D01*
X162357967Y-104766185D01*
X162361701Y-104776731D01*
X162450510Y-104970705D01*
X162456046Y-104980412D01*
X162577803Y-105155597D01*
X162584976Y-105164176D01*
X162735824Y-105315024D01*
X162744403Y-105322197D01*
X162919588Y-105443954D01*
X162929295Y-105449490D01*
X163123269Y-105538299D01*
X163133815Y-105542033D01*
X163340679Y-105595147D01*
X163351234Y-105596918D01*
X163484930Y-105607793D01*
X163490036Y-105608000D01*
X165027885Y-105608000D01*
X165043124Y-105603525D01*
X165044329Y-105602135D01*
X165046000Y-105594452D01*
X165046000Y-105589884D01*
X165554000Y-105589884D01*
X165558475Y-105605123D01*
X165559865Y-105606328D01*
X165567548Y-105607999D01*
X167109961Y-105607999D01*
X167115071Y-105607791D01*
X167248767Y-105596918D01*
X167259320Y-105595148D01*
X167466185Y-105542033D01*
X167476731Y-105538299D01*
X167670705Y-105449490D01*
X167680412Y-105443954D01*
X167855597Y-105322197D01*
X167864176Y-105315024D01*
X168015024Y-105164176D01*
X168022197Y-105155597D01*
X168143954Y-104980412D01*
X168149490Y-104970705D01*
X168238299Y-104776731D01*
X168242033Y-104766185D01*
X168295147Y-104559321D01*
X168296918Y-104548766D01*
X168307793Y-104415070D01*
X168308000Y-104409964D01*
X168308000Y-103872115D01*
X168303525Y-103856876D01*
X168302135Y-103855671D01*
X168294452Y-103854000D01*
X165572115Y-103854000D01*
X165556876Y-103858475D01*
X165555671Y-103859865D01*
X165554000Y-103867548D01*
X165554000Y-105589884D01*
X165046000Y-105589884D01*
X165046000Y-103872115D01*
X165041525Y-103856876D01*
X165040135Y-103855671D01*
X165032452Y-103854000D01*
X162310116Y-103854000D01*
X162294877Y-103858475D01*
X162293672Y-103859865D01*
X162292001Y-103867548D01*
X162292001Y-104409961D01*
X156242361Y-104409961D01*
X157324437Y-103327885D01*
X162292000Y-103327885D01*
X162296475Y-103343124D01*
X162297865Y-103344329D01*
X162305548Y-103346000D01*
X165027885Y-103346000D01*
X165043124Y-103341525D01*
X165044329Y-103340135D01*
X165046000Y-103332452D01*
X165046000Y-103327885D01*
X165554000Y-103327885D01*
X165558475Y-103343124D01*
X165559865Y-103344329D01*
X165567548Y-103346000D01*
X168289884Y-103346000D01*
X168305123Y-103341525D01*
X168306328Y-103340135D01*
X168307999Y-103332452D01*
X168307999Y-102790039D01*
X168307791Y-102784929D01*
X168296918Y-102651233D01*
X168295148Y-102640680D01*
X168242033Y-102433815D01*
X168238299Y-102423269D01*
X168149490Y-102229295D01*
X168143954Y-102219588D01*
X168022197Y-102044403D01*
X168015024Y-102035824D01*
X167864176Y-101884976D01*
X167855597Y-101877803D01*
X167680412Y-101756046D01*
X167670705Y-101750510D01*
X167476731Y-101661701D01*
X167466185Y-101657967D01*
X167259321Y-101604853D01*
X167248766Y-101603082D01*
X167115070Y-101592207D01*
X167109964Y-101592000D01*
X165572115Y-101592000D01*
X165556876Y-101596475D01*
X165555671Y-101597865D01*
X165554000Y-101605548D01*
X165554000Y-103327885D01*
X165046000Y-103327885D01*
X165046000Y-101610116D01*
X165041525Y-101594877D01*
X165040135Y-101593672D01*
X165032452Y-101592001D01*
X163490039Y-101592001D01*
X163484929Y-101592209D01*
X163351233Y-101603082D01*
X163340680Y-101604852D01*
X163133815Y-101657967D01*
X163123269Y-101661701D01*
X162929295Y-101750510D01*
X162919588Y-101756046D01*
X162744403Y-101877803D01*
X162735824Y-101884976D01*
X162584976Y-102035824D01*
X162577803Y-102044403D01*
X162456046Y-102219588D01*
X162450510Y-102229295D01*
X162361701Y-102423269D01*
X162357967Y-102433815D01*
X162304853Y-102640679D01*
X162303082Y-102651234D01*
X162292207Y-102784930D01*
X162292000Y-102790036D01*
X162292000Y-103327885D01*
X157324437Y-103327885D01*
X164714917Y-95937405D01*
X164777229Y-95903379D01*
X164804012Y-95900500D01*
X167050090Y-95900499D01*
X167133848Y-95900499D01*
X167210631Y-95895893D01*
X167253665Y-95893311D01*
X167253667Y-95893311D01*
X167257847Y-95893060D01*
X167513205Y-95843192D01*
X167517610Y-95841628D01*
X167517613Y-95841627D01*
X167651493Y-95794086D01*
X167758387Y-95756128D01*
X167988006Y-95633779D01*
X167991762Y-95630995D01*
X168193272Y-95481614D01*
X168193277Y-95481610D01*
X168197020Y-95478835D01*
X168200313Y-95475537D01*
X168200318Y-95475532D01*
X168377532Y-95298008D01*
X168377533Y-95298006D01*
X168380835Y-95294699D01*
X168535414Y-95085415D01*
X168657361Y-94855582D01*
X168697076Y-94743120D01*
X168742441Y-94614659D01*
X168742442Y-94614655D01*
X168743998Y-94610249D01*
X168793420Y-94354805D01*
X168800500Y-94233849D01*
X168800499Y-92566152D01*
X168793060Y-92442153D01*
X168743192Y-92186795D01*
X168714101Y-92104870D01*
X168657692Y-91946018D01*
X168656128Y-91941613D01*
X168533779Y-91711994D01*
X168502211Y-91669410D01*
X168381614Y-91506728D01*
X168381610Y-91506723D01*
X168378835Y-91502980D01*
X168375537Y-91499687D01*
X168375532Y-91499682D01*
X168198008Y-91322468D01*
X168198006Y-91322467D01*
X168194699Y-91319165D01*
X167985415Y-91164586D01*
X167981286Y-91162395D01*
X167759708Y-91044828D01*
X167759706Y-91044827D01*
X167755582Y-91042639D01*
X167643912Y-91003204D01*
X167514659Y-90957559D01*
X167514655Y-90957558D01*
X167510249Y-90956002D01*
X167505665Y-90955115D01*
X167505661Y-90955114D01*
X167342425Y-90923532D01*
X167254805Y-90906580D01*
X167133849Y-90899500D01*
X165335881Y-90899500D01*
X163466152Y-90899501D01*
X163389369Y-90904107D01*
X163346335Y-90906689D01*
X163346333Y-90906689D01*
X163342153Y-90906940D01*
X163086795Y-90956808D01*
X163082390Y-90958372D01*
X163082387Y-90958373D01*
X162948507Y-91005914D01*
X162841613Y-91043872D01*
X162611994Y-91166221D01*
X162608241Y-91169003D01*
X162608238Y-91169005D01*
X162406728Y-91318386D01*
X162406723Y-91318390D01*
X162402980Y-91321165D01*
X162399687Y-91324463D01*
X162399682Y-91324468D01*
X162330188Y-91394084D01*
X162219165Y-91505301D01*
X162064586Y-91714585D01*
X162062396Y-91718712D01*
X162062395Y-91718714D01*
X161976404Y-91880782D01*
X161942639Y-91944418D01*
X161926592Y-91989860D01*
X161858603Y-92182387D01*
X161856002Y-92189751D01*
X161855115Y-92194335D01*
X161855114Y-92194339D01*
X161843539Y-92254169D01*
X161806580Y-92445195D01*
X161799500Y-92566151D01*
X161799501Y-94233848D01*
X161806940Y-94357847D01*
X161856808Y-94613205D01*
X161858372Y-94617610D01*
X161858373Y-94617613D01*
X161902941Y-94743120D01*
X161906887Y-94814007D01*
X161873300Y-94874378D01*
X143311804Y-113435874D01*
X143305289Y-113441944D01*
X143256727Y-113484084D01*
X143253344Y-113488210D01*
X143253339Y-113488215D01*
X143189102Y-113566559D01*
X143187977Y-113567911D01*
X143122695Y-113645298D01*
X143122691Y-113645304D01*
X143119249Y-113649384D01*
X143116546Y-113653983D01*
X143114012Y-113657561D01*
X143111564Y-113661123D01*
X143108181Y-113665249D01*
X143105538Y-113669892D01*
X143055449Y-113757886D01*
X143054570Y-113759406D01*
X143000519Y-113851349D01*
X142998628Y-113856340D01*
X142996735Y-113860291D01*
X142994921Y-113864217D01*
X142992282Y-113868853D01*
X142990464Y-113873862D01*
X142990461Y-113873868D01*
X142955882Y-113969132D01*
X142955299Y-113970705D01*
X142917516Y-114070431D01*
X142916494Y-114075665D01*
X142915299Y-114079860D01*
X142914165Y-114084061D01*
X142912346Y-114089073D01*
X142911397Y-114094319D01*
X142911396Y-114094324D01*
X142893373Y-114193995D01*
X142893048Y-114195723D01*
X142872613Y-114300368D01*
X142872487Y-114305704D01*
X142871934Y-114310794D01*
X142871840Y-114311404D01*
X142871864Y-114311407D01*
X142871396Y-114315530D01*
X142870658Y-114319614D01*
X142869500Y-114344169D01*
X142869500Y-114430994D01*
X142869465Y-114433962D01*
X142867094Y-114534582D01*
X142867869Y-114539861D01*
X142867869Y-114539864D01*
X142868164Y-114541871D01*
X142869500Y-114560169D01*
X142869500Y-126196308D01*
X142869185Y-126205207D01*
X142864644Y-126269344D01*
X142865170Y-126274657D01*
X142875142Y-126375460D01*
X142875303Y-126377212D01*
X142884317Y-126483441D01*
X142885658Y-126488608D01*
X142886394Y-126492913D01*
X142887184Y-126497175D01*
X142887709Y-126502485D01*
X142889121Y-126507629D01*
X142915933Y-126605302D01*
X142916372Y-126606946D01*
X142943173Y-126710206D01*
X142945368Y-126715077D01*
X142946830Y-126719229D01*
X142948314Y-126723262D01*
X142949726Y-126728408D01*
X142994890Y-126825043D01*
X142995578Y-126826541D01*
X143039396Y-126923813D01*
X143042372Y-126928234D01*
X143044509Y-126932073D01*
X143046666Y-126935824D01*
X143048922Y-126940650D01*
X143109741Y-127028320D01*
X143110679Y-127029694D01*
X143170234Y-127118154D01*
X143173920Y-127122018D01*
X143177125Y-127126004D01*
X143177478Y-127126510D01*
X143177509Y-127126485D01*
X143180090Y-127129727D01*
X143182461Y-127133145D01*
X143185260Y-127136221D01*
X143197998Y-127150221D01*
X143198012Y-127150235D01*
X143199005Y-127151327D01*
X143260359Y-127212681D01*
X143262433Y-127214803D01*
X143331946Y-127287671D01*
X143336221Y-127290852D01*
X143336227Y-127290857D01*
X143337862Y-127292073D01*
X143351746Y-127304068D01*
X146803374Y-130755696D01*
X146809444Y-130762211D01*
X146851584Y-130810773D01*
X146934137Y-130878462D01*
X146935307Y-130879436D01*
X147016884Y-130948252D01*
X147021486Y-130950957D01*
X147025005Y-130953449D01*
X147028622Y-130955935D01*
X147032749Y-130959319D01*
X147037388Y-130961960D01*
X147037390Y-130961961D01*
X147125393Y-131012055D01*
X147126889Y-131012920D01*
X147218849Y-131066981D01*
X147223843Y-131068873D01*
X147227785Y-131070762D01*
X147231713Y-131072577D01*
X147236353Y-131075218D01*
X147303152Y-131099465D01*
X147336598Y-131111605D01*
X147338248Y-131112217D01*
X147432938Y-131148092D01*
X147437932Y-131149984D01*
X147443174Y-131151008D01*
X147447377Y-131152205D01*
X147451552Y-131153331D01*
X147456573Y-131155154D01*
X147461828Y-131156104D01*
X147461831Y-131156105D01*
X147561437Y-131174116D01*
X147563167Y-131174441D01*
X147616835Y-131184922D01*
X147667868Y-131194888D01*
X147673204Y-131195014D01*
X147678303Y-131195568D01*
X147678901Y-131195675D01*
X147678905Y-131195635D01*
X147683021Y-131196102D01*
X147687114Y-131196842D01*
X147691268Y-131197038D01*
X147691269Y-131197038D01*
X147710181Y-131197930D01*
X147710188Y-131197930D01*
X147711669Y-131198000D01*
X147798476Y-131198000D01*
X147801443Y-131198035D01*
X147902082Y-131200406D01*
X147907361Y-131199631D01*
X147907364Y-131199631D01*
X147908472Y-131199468D01*
X147909374Y-131199336D01*
X147927669Y-131198000D01*
X148892844Y-131198000D01*
X148960965Y-131218002D01*
X149007458Y-131271658D01*
X149018345Y-131312799D01*
X149020336Y-131335106D01*
X149025734Y-131395587D01*
X149081759Y-131590970D01*
X149175927Y-131771096D01*
X149304391Y-131928609D01*
X149461904Y-132057073D01*
X149642030Y-132151241D01*
X149837413Y-132207266D01*
X149869045Y-132210089D01*
X149954891Y-132217751D01*
X149954897Y-132217751D01*
X149957684Y-132218000D01*
X152873316Y-132218000D01*
X152876103Y-132217751D01*
X152876109Y-132217751D01*
X152961955Y-132210089D01*
X152993587Y-132207266D01*
X153045476Y-132192387D01*
X153130770Y-132167930D01*
X153200230Y-132167930D01*
X153285524Y-132192387D01*
X153337413Y-132207266D01*
X153359732Y-132209258D01*
X153420201Y-132214655D01*
X153486274Y-132240634D01*
X153527813Y-132298210D01*
X153535000Y-132340156D01*
X153535000Y-134210488D01*
X153514998Y-134278609D01*
X153498095Y-134299583D01*
X149465083Y-138332595D01*
X149402771Y-138366621D01*
X149375988Y-138369500D01*
X133124011Y-138369500D01*
X133055890Y-138349498D01*
X133034916Y-138332595D01*
X130916074Y-136213752D01*
X128764126Y-134061804D01*
X128758056Y-134055289D01*
X128719420Y-134010765D01*
X128715916Y-134006727D01*
X128711790Y-134003344D01*
X128711785Y-134003339D01*
X128633441Y-133939102D01*
X128632089Y-133937977D01*
X128554702Y-133872695D01*
X128554696Y-133872691D01*
X128550616Y-133869249D01*
X128546011Y-133866542D01*
X128542439Y-133864013D01*
X128538881Y-133861568D01*
X128534751Y-133858181D01*
X128442109Y-133805446D01*
X128440590Y-133804568D01*
X128353249Y-133753222D01*
X128353248Y-133753222D01*
X128348651Y-133750519D01*
X128343660Y-133748628D01*
X128339709Y-133746735D01*
X128335783Y-133744921D01*
X128331147Y-133742282D01*
X128326138Y-133740464D01*
X128326132Y-133740461D01*
X128230868Y-133705882D01*
X128229295Y-133705299D01*
X128129569Y-133667516D01*
X128124335Y-133666494D01*
X128120140Y-133665299D01*
X128115939Y-133664165D01*
X128110927Y-133662346D01*
X128105681Y-133661397D01*
X128105676Y-133661396D01*
X128006005Y-133643373D01*
X128004277Y-133643048D01*
X127904872Y-133623636D01*
X127904869Y-133623636D01*
X127899632Y-133622613D01*
X127894296Y-133622487D01*
X127889206Y-133621934D01*
X127888596Y-133621840D01*
X127888593Y-133621864D01*
X127884470Y-133621396D01*
X127880386Y-133620658D01*
X127863778Y-133619875D01*
X127857319Y-133619570D01*
X127857312Y-133619570D01*
X127855831Y-133619500D01*
X127769006Y-133619500D01*
X127766038Y-133619465D01*
X127763142Y-133619397D01*
X127665418Y-133617094D01*
X127660139Y-133617869D01*
X127660136Y-133617869D01*
X127659028Y-133618032D01*
X127658126Y-133618164D01*
X127639831Y-133619500D01*
X123981147Y-133619500D01*
X123913026Y-133599498D01*
X123869486Y-133551876D01*
X123822532Y-133462062D01*
X123822527Y-133462054D01*
X123819573Y-133456404D01*
X123691109Y-133298891D01*
X123533596Y-133170427D01*
X123353470Y-133076259D01*
X123158087Y-133020234D01*
X123126455Y-133017411D01*
X123040609Y-133009749D01*
X123040603Y-133009749D01*
X123037816Y-133009500D01*
X118962184Y-133009500D01*
X118959397Y-133009749D01*
X118959391Y-133009749D01*
X118873545Y-133017411D01*
X118841913Y-133020234D01*
X118646530Y-133076259D01*
X118466404Y-133170427D01*
X118308891Y-133298891D01*
X118180427Y-133456404D01*
X118086259Y-133636530D01*
X118030234Y-133831913D01*
X118029701Y-133837886D01*
X118020668Y-133939102D01*
X118019500Y-133952184D01*
X118019500Y-136047816D01*
X112500000Y-136047816D01*
X112500000Y-104409961D01*
X136692001Y-104409961D01*
X136692209Y-104415071D01*
X136703082Y-104548767D01*
X136704852Y-104559320D01*
X136757967Y-104766185D01*
X136761701Y-104776731D01*
X136850510Y-104970705D01*
X136856046Y-104980412D01*
X136977803Y-105155597D01*
X136984976Y-105164176D01*
X137135824Y-105315024D01*
X137144403Y-105322197D01*
X137319588Y-105443954D01*
X137329295Y-105449490D01*
X137523269Y-105538299D01*
X137533815Y-105542033D01*
X137740679Y-105595147D01*
X137751234Y-105596918D01*
X137884930Y-105607793D01*
X137890036Y-105608000D01*
X139427885Y-105608000D01*
X139443124Y-105603525D01*
X139444329Y-105602135D01*
X139446000Y-105594452D01*
X139446000Y-105589884D01*
X139954000Y-105589884D01*
X139958475Y-105605123D01*
X139959865Y-105606328D01*
X139967548Y-105607999D01*
X141509961Y-105607999D01*
X141515071Y-105607791D01*
X141648767Y-105596918D01*
X141659320Y-105595148D01*
X141866185Y-105542033D01*
X141876731Y-105538299D01*
X142070705Y-105449490D01*
X142080412Y-105443954D01*
X142255597Y-105322197D01*
X142264176Y-105315024D01*
X142415024Y-105164176D01*
X142422197Y-105155597D01*
X142543954Y-104980412D01*
X142549490Y-104970705D01*
X142638299Y-104776731D01*
X142642033Y-104766185D01*
X142695147Y-104559321D01*
X142696918Y-104548766D01*
X142707793Y-104415070D01*
X142708000Y-104409964D01*
X142708000Y-103872115D01*
X142703525Y-103856876D01*
X142702135Y-103855671D01*
X142694452Y-103854000D01*
X139972115Y-103854000D01*
X139956876Y-103858475D01*
X139955671Y-103859865D01*
X139954000Y-103867548D01*
X139954000Y-105589884D01*
X139446000Y-105589884D01*
X139446000Y-103872115D01*
X139441525Y-103856876D01*
X139440135Y-103855671D01*
X139432452Y-103854000D01*
X136710116Y-103854000D01*
X136694877Y-103858475D01*
X136693672Y-103859865D01*
X136692001Y-103867548D01*
X136692001Y-104409961D01*
X112500000Y-104409961D01*
X112500000Y-103327885D01*
X136692000Y-103327885D01*
X136696475Y-103343124D01*
X136697865Y-103344329D01*
X136705548Y-103346000D01*
X139427885Y-103346000D01*
X139443124Y-103341525D01*
X139444329Y-103340135D01*
X139446000Y-103332452D01*
X139446000Y-103327885D01*
X139954000Y-103327885D01*
X139958475Y-103343124D01*
X139959865Y-103344329D01*
X139967548Y-103346000D01*
X142689884Y-103346000D01*
X142705123Y-103341525D01*
X142706328Y-103340135D01*
X142707999Y-103332452D01*
X142707999Y-102790039D01*
X142707791Y-102784929D01*
X142696918Y-102651233D01*
X142695148Y-102640680D01*
X142642033Y-102433815D01*
X142638299Y-102423269D01*
X142549490Y-102229295D01*
X142543954Y-102219588D01*
X142422197Y-102044403D01*
X142415024Y-102035824D01*
X142264176Y-101884976D01*
X142255597Y-101877803D01*
X142080412Y-101756046D01*
X142070705Y-101750510D01*
X141876731Y-101661701D01*
X141866185Y-101657967D01*
X141659321Y-101604853D01*
X141648766Y-101603082D01*
X141515070Y-101592207D01*
X141509964Y-101592000D01*
X139972115Y-101592000D01*
X139956876Y-101596475D01*
X139955671Y-101597865D01*
X139954000Y-101605548D01*
X139954000Y-103327885D01*
X139446000Y-103327885D01*
X139446000Y-101610116D01*
X139441525Y-101594877D01*
X139440135Y-101593672D01*
X139432452Y-101592001D01*
X137890039Y-101592001D01*
X137884929Y-101592209D01*
X137751233Y-101603082D01*
X137740680Y-101604852D01*
X137533815Y-101657967D01*
X137523269Y-101661701D01*
X137329295Y-101750510D01*
X137319588Y-101756046D01*
X137144403Y-101877803D01*
X137135824Y-101884976D01*
X136984976Y-102035824D01*
X136977803Y-102044403D01*
X136856046Y-102219588D01*
X136850510Y-102229295D01*
X136761701Y-102423269D01*
X136757967Y-102433815D01*
X136704853Y-102640679D01*
X136703082Y-102651234D01*
X136692207Y-102784930D01*
X136692000Y-102790036D01*
X136692000Y-103327885D01*
X112500000Y-103327885D01*
X112500000Y-100507194D01*
X118536135Y-100507194D01*
X118547006Y-100578236D01*
X118549395Y-100588263D01*
X118622709Y-100812570D01*
X118626706Y-100822079D01*
X118735669Y-101031395D01*
X118741163Y-101040120D01*
X118882854Y-101228835D01*
X118889697Y-101236542D01*
X119060310Y-101399584D01*
X119068316Y-101406067D01*
X119263274Y-101539057D01*
X119272226Y-101544143D01*
X119486285Y-101643506D01*
X119495945Y-101647060D01*
X119723369Y-101710130D01*
X119733473Y-101712057D01*
X119926102Y-101732644D01*
X119932794Y-101733000D01*
X120727885Y-101733000D01*
X120743124Y-101728525D01*
X120744329Y-101727135D01*
X120746000Y-101719452D01*
X120746000Y-101714885D01*
X121254000Y-101714885D01*
X121258475Y-101730124D01*
X121259865Y-101731329D01*
X121267548Y-101733000D01*
X122049857Y-101733000D01*
X122055030Y-101732788D01*
X122230350Y-101718374D01*
X122240512Y-101716691D01*
X122469396Y-101659200D01*
X122479151Y-101655879D01*
X122695557Y-101561782D01*
X122704655Y-101556904D01*
X122902787Y-101428727D01*
X122910956Y-101422437D01*
X123085501Y-101263613D01*
X123092526Y-101256080D01*
X123238787Y-101070880D01*
X123244492Y-101062293D01*
X123358536Y-100855703D01*
X123362766Y-100846291D01*
X123441539Y-100623844D01*
X123444173Y-100613873D01*
X123463239Y-100506837D01*
X123461779Y-100493540D01*
X123447222Y-100489000D01*
X121272115Y-100489000D01*
X121256876Y-100493475D01*
X121255671Y-100494865D01*
X121254000Y-100502548D01*
X121254000Y-101714885D01*
X120746000Y-101714885D01*
X120746000Y-100507115D01*
X120741525Y-100491876D01*
X120740135Y-100490671D01*
X120732452Y-100489000D01*
X118551466Y-100489000D01*
X118538122Y-100492918D01*
X118536135Y-100507194D01*
X112500000Y-100507194D01*
X112500000Y-99963163D01*
X118536761Y-99963163D01*
X118538221Y-99976460D01*
X118552778Y-99981000D01*
X120727885Y-99981000D01*
X120743124Y-99976525D01*
X120744329Y-99975135D01*
X120746000Y-99967452D01*
X120746000Y-99962885D01*
X121254000Y-99962885D01*
X121258475Y-99978124D01*
X121259865Y-99979329D01*
X121267548Y-99981000D01*
X123448534Y-99981000D01*
X123461878Y-99977082D01*
X123463865Y-99962806D01*
X123452994Y-99891764D01*
X123450605Y-99881737D01*
X123377291Y-99657430D01*
X123373294Y-99647921D01*
X123264331Y-99438605D01*
X123258837Y-99429880D01*
X123117146Y-99241165D01*
X123110303Y-99233458D01*
X122939690Y-99070416D01*
X122931684Y-99063933D01*
X122736726Y-98930943D01*
X122727774Y-98925857D01*
X122513715Y-98826494D01*
X122504055Y-98822940D01*
X122276631Y-98759870D01*
X122266527Y-98757943D01*
X122073898Y-98737356D01*
X122067206Y-98737000D01*
X121272115Y-98737000D01*
X121256876Y-98741475D01*
X121255671Y-98742865D01*
X121254000Y-98750548D01*
X121254000Y-99962885D01*
X120746000Y-99962885D01*
X120746000Y-98755115D01*
X120741525Y-98739876D01*
X120740135Y-98738671D01*
X120732452Y-98737000D01*
X119950143Y-98737000D01*
X119944970Y-98737212D01*
X119769650Y-98751626D01*
X119759488Y-98753309D01*
X119530604Y-98810800D01*
X119520849Y-98814121D01*
X119304443Y-98908218D01*
X119295345Y-98913096D01*
X119097213Y-99041273D01*
X119089044Y-99047563D01*
X118914499Y-99206387D01*
X118907474Y-99213920D01*
X118761213Y-99399120D01*
X118755508Y-99407707D01*
X118641464Y-99614297D01*
X118637234Y-99623709D01*
X118558461Y-99846156D01*
X118555827Y-99856127D01*
X118536761Y-99963163D01*
X112500000Y-99963163D01*
X112500000Y-96282816D01*
X118019500Y-96282816D01*
X118030234Y-96403087D01*
X118086259Y-96598470D01*
X118180427Y-96778596D01*
X118308891Y-96936109D01*
X118466404Y-97064573D01*
X118646530Y-97158741D01*
X118841913Y-97214766D01*
X118873545Y-97217589D01*
X118959391Y-97225251D01*
X118959397Y-97225251D01*
X118962184Y-97225500D01*
X123037816Y-97225500D01*
X123040603Y-97225251D01*
X123040609Y-97225251D01*
X123126455Y-97217589D01*
X123158087Y-97214766D01*
X123353470Y-97158741D01*
X123533596Y-97064573D01*
X123691109Y-96936109D01*
X123819573Y-96778596D01*
X123913741Y-96598470D01*
X123969766Y-96403087D01*
X123980500Y-96282816D01*
X123980500Y-94187184D01*
X123969766Y-94066913D01*
X123913741Y-93871530D01*
X123819573Y-93691404D01*
X123691109Y-93533891D01*
X123533596Y-93405427D01*
X123353470Y-93311259D01*
X123158087Y-93255234D01*
X123126455Y-93252411D01*
X123040609Y-93244749D01*
X123040603Y-93244749D01*
X123037816Y-93244500D01*
X122506500Y-93244500D01*
X122438379Y-93224498D01*
X122391886Y-93170842D01*
X122380500Y-93118500D01*
X122380500Y-92984012D01*
X122400502Y-92915891D01*
X122417405Y-92894917D01*
X125144917Y-90167405D01*
X125207229Y-90133379D01*
X125234012Y-90130500D01*
X134425988Y-90130500D01*
X134494109Y-90150502D01*
X134515083Y-90167405D01*
X136273287Y-91925609D01*
X136307313Y-91987921D01*
X136303002Y-92056658D01*
X136256002Y-92189751D01*
X136255115Y-92194335D01*
X136255114Y-92194339D01*
X136243539Y-92254169D01*
X136206580Y-92445195D01*
X136199500Y-92566151D01*
X136199501Y-94233848D01*
X136206940Y-94357847D01*
X136256808Y-94613205D01*
X136343872Y-94858387D01*
X136466221Y-95088006D01*
X136469003Y-95091759D01*
X136469005Y-95091762D01*
X136618386Y-95293272D01*
X136618390Y-95293277D01*
X136621165Y-95297020D01*
X136624463Y-95300313D01*
X136624468Y-95300318D01*
X136799989Y-95475532D01*
X136805301Y-95480835D01*
X137014585Y-95635414D01*
X137018712Y-95637604D01*
X137018714Y-95637605D01*
X137237950Y-95753929D01*
X137244418Y-95757361D01*
X137356088Y-95796796D01*
X137485341Y-95842441D01*
X137485345Y-95842442D01*
X137489751Y-95843998D01*
X137494335Y-95844885D01*
X137494339Y-95844886D01*
X137657575Y-95876468D01*
X137745195Y-95893420D01*
X137866151Y-95900500D01*
X139664119Y-95900500D01*
X141533848Y-95900499D01*
X141610631Y-95895893D01*
X141653665Y-95893311D01*
X141653667Y-95893311D01*
X141657847Y-95893060D01*
X141913205Y-95843192D01*
X141917610Y-95841628D01*
X141917613Y-95841627D01*
X142051493Y-95794086D01*
X142158387Y-95756128D01*
X142388006Y-95633779D01*
X142391762Y-95630995D01*
X142593272Y-95481614D01*
X142593277Y-95481610D01*
X142597020Y-95478835D01*
X142600313Y-95475537D01*
X142600318Y-95475532D01*
X142777532Y-95298008D01*
X142777533Y-95298006D01*
X142780835Y-95294699D01*
X142935414Y-95085415D01*
X143057361Y-94855582D01*
X143097076Y-94743120D01*
X143142441Y-94614659D01*
X143142442Y-94614655D01*
X143143998Y-94610249D01*
X143193420Y-94354805D01*
X143200500Y-94233849D01*
X143200499Y-92566152D01*
X143193060Y-92442153D01*
X143143192Y-92186795D01*
X143114101Y-92104870D01*
X143057692Y-91946018D01*
X143056128Y-91941613D01*
X142933779Y-91711994D01*
X142902211Y-91669410D01*
X142781614Y-91506728D01*
X142781610Y-91506723D01*
X142778835Y-91502980D01*
X142775537Y-91499687D01*
X142775532Y-91499682D01*
X142598008Y-91322468D01*
X142598006Y-91322467D01*
X142594699Y-91319165D01*
X142385415Y-91164586D01*
X142381286Y-91162395D01*
X142159708Y-91044828D01*
X142159706Y-91044827D01*
X142155582Y-91042639D01*
X142043912Y-91003204D01*
X141914659Y-90957559D01*
X141914655Y-90957558D01*
X141910249Y-90956002D01*
X141905665Y-90955115D01*
X141905661Y-90955114D01*
X141742425Y-90923532D01*
X141654805Y-90906580D01*
X141533849Y-90899500D01*
X141453197Y-90899500D01*
X139204013Y-90899501D01*
X139135892Y-90879499D01*
X139114918Y-90862596D01*
X136064126Y-87811804D01*
X136058056Y-87805289D01*
X136019420Y-87760765D01*
X136015916Y-87756727D01*
X136011790Y-87753344D01*
X136011785Y-87753339D01*
X135933441Y-87689102D01*
X135932089Y-87687977D01*
X135854702Y-87622695D01*
X135854696Y-87622691D01*
X135850616Y-87619249D01*
X135846011Y-87616542D01*
X135842439Y-87614013D01*
X135838881Y-87611568D01*
X135834751Y-87608181D01*
X135742109Y-87555446D01*
X135740590Y-87554568D01*
X135653249Y-87503222D01*
X135653248Y-87503222D01*
X135648651Y-87500519D01*
X135643660Y-87498628D01*
X135639709Y-87496735D01*
X135635783Y-87494921D01*
X135631147Y-87492282D01*
X135626138Y-87490464D01*
X135626132Y-87490461D01*
X135530868Y-87455882D01*
X135529295Y-87455299D01*
X135429569Y-87417516D01*
X135424335Y-87416494D01*
X135420140Y-87415299D01*
X135415939Y-87414165D01*
X135410927Y-87412346D01*
X135405681Y-87411397D01*
X135405676Y-87411396D01*
X135306005Y-87393373D01*
X135304277Y-87393048D01*
X135204872Y-87373636D01*
X135204869Y-87373636D01*
X135199632Y-87372613D01*
X135194296Y-87372487D01*
X135189206Y-87371934D01*
X135188596Y-87371840D01*
X135188593Y-87371864D01*
X135184470Y-87371396D01*
X135180386Y-87370658D01*
X135163778Y-87369875D01*
X135157319Y-87369570D01*
X135157312Y-87369570D01*
X135155831Y-87369500D01*
X135069006Y-87369500D01*
X135066038Y-87369465D01*
X135063142Y-87369397D01*
X134965418Y-87367094D01*
X134960139Y-87367869D01*
X134960136Y-87367869D01*
X134959028Y-87368032D01*
X134958126Y-87368164D01*
X134939831Y-87369500D01*
X124663692Y-87369500D01*
X124654793Y-87369185D01*
X124595984Y-87365021D01*
X124595981Y-87365021D01*
X124590656Y-87364644D01*
X124540865Y-87369570D01*
X124484540Y-87375142D01*
X124482788Y-87375303D01*
X124424311Y-87380265D01*
X124376559Y-87384317D01*
X124371392Y-87385658D01*
X124367087Y-87386394D01*
X124362825Y-87387184D01*
X124357515Y-87387709D01*
X124254641Y-87415948D01*
X124253054Y-87416372D01*
X124178761Y-87435655D01*
X124154964Y-87441831D01*
X124154963Y-87441832D01*
X124149794Y-87443173D01*
X124144923Y-87445368D01*
X124140771Y-87446830D01*
X124136738Y-87448314D01*
X124131592Y-87449726D01*
X124034957Y-87494890D01*
X124033459Y-87495578D01*
X123936187Y-87539396D01*
X123931766Y-87542372D01*
X123927927Y-87544509D01*
X123924176Y-87546666D01*
X123919350Y-87548922D01*
X123831680Y-87609741D01*
X123830306Y-87610679D01*
X123741846Y-87670234D01*
X123737982Y-87673920D01*
X123733996Y-87677125D01*
X123733490Y-87677478D01*
X123733515Y-87677509D01*
X123730273Y-87680090D01*
X123726855Y-87682461D01*
X123723779Y-87685260D01*
X123709779Y-87697998D01*
X123709765Y-87698012D01*
X123708673Y-87699005D01*
X123647319Y-87760359D01*
X123645197Y-87762433D01*
X123572329Y-87831946D01*
X123569148Y-87836221D01*
X123569143Y-87836227D01*
X123567927Y-87837862D01*
X123555932Y-87851746D01*
X120061804Y-91345874D01*
X120055289Y-91351944D01*
X120006727Y-91394084D01*
X120003344Y-91398210D01*
X120003339Y-91398215D01*
X119939102Y-91476559D01*
X119937977Y-91477911D01*
X119872695Y-91555298D01*
X119872691Y-91555304D01*
X119869249Y-91559384D01*
X119866546Y-91563983D01*
X119864012Y-91567561D01*
X119861564Y-91571123D01*
X119858181Y-91575249D01*
X119855538Y-91579892D01*
X119805449Y-91667886D01*
X119804570Y-91669406D01*
X119750519Y-91761349D01*
X119748628Y-91766340D01*
X119746735Y-91770291D01*
X119744921Y-91774217D01*
X119742282Y-91778853D01*
X119740464Y-91783862D01*
X119740461Y-91783868D01*
X119705882Y-91879132D01*
X119705299Y-91880705D01*
X119667516Y-91980431D01*
X119666494Y-91985665D01*
X119665299Y-91989860D01*
X119664165Y-91994061D01*
X119662346Y-91999073D01*
X119661397Y-92004319D01*
X119661396Y-92004324D01*
X119643373Y-92103995D01*
X119643048Y-92105723D01*
X119622613Y-92210368D01*
X119622487Y-92215704D01*
X119621934Y-92220794D01*
X119621840Y-92221404D01*
X119621864Y-92221407D01*
X119621396Y-92225530D01*
X119620658Y-92229614D01*
X119619500Y-92254169D01*
X119619500Y-92340994D01*
X119619465Y-92343962D01*
X119617094Y-92444582D01*
X119617869Y-92449861D01*
X119617869Y-92449864D01*
X119618164Y-92451871D01*
X119619500Y-92470169D01*
X119619500Y-93118500D01*
X119599498Y-93186621D01*
X119545842Y-93233114D01*
X119493500Y-93244500D01*
X118962184Y-93244500D01*
X118959397Y-93244749D01*
X118959391Y-93244749D01*
X118873545Y-93252411D01*
X118841913Y-93255234D01*
X118646530Y-93311259D01*
X118466404Y-93405427D01*
X118308891Y-93533891D01*
X118180427Y-93691404D01*
X118086259Y-93871530D01*
X118030234Y-94066913D01*
X118019500Y-94187184D01*
X118019500Y-96282816D01*
X112500000Y-96282816D01*
X112500000Y-87000000D01*
X114794422Y-87000000D01*
X114814722Y-87387338D01*
X114815235Y-87390578D01*
X114815236Y-87390586D01*
X114841276Y-87554993D01*
X114875398Y-87770433D01*
X114975786Y-88145087D01*
X115114786Y-88507194D01*
X115290875Y-88852789D01*
X115502124Y-89178084D01*
X115746219Y-89479516D01*
X116020484Y-89753781D01*
X116321916Y-89997876D01*
X116647211Y-90209125D01*
X116992806Y-90385214D01*
X117354913Y-90524214D01*
X117729567Y-90624602D01*
X117933201Y-90656854D01*
X118109414Y-90684764D01*
X118109422Y-90684765D01*
X118112662Y-90685278D01*
X118500000Y-90705578D01*
X118887338Y-90685278D01*
X118890578Y-90684765D01*
X118890586Y-90684764D01*
X119066799Y-90656854D01*
X119270433Y-90624602D01*
X119645087Y-90524214D01*
X120007194Y-90385214D01*
X120352789Y-90209125D01*
X120678084Y-89997876D01*
X120979516Y-89753781D01*
X121253781Y-89479516D01*
X121497876Y-89178084D01*
X121709125Y-88852789D01*
X121885214Y-88507194D01*
X122024214Y-88145087D01*
X122124602Y-87770433D01*
X122158724Y-87554993D01*
X122184764Y-87390586D01*
X122184765Y-87390578D01*
X122185278Y-87387338D01*
X122205578Y-87000000D01*
X234044422Y-87000000D01*
X234064722Y-87387338D01*
X234065235Y-87390578D01*
X234065236Y-87390586D01*
X234091276Y-87554993D01*
X234125398Y-87770433D01*
X234225786Y-88145087D01*
X234364786Y-88507194D01*
X234540875Y-88852789D01*
X234752124Y-89178084D01*
X234996219Y-89479516D01*
X235270484Y-89753781D01*
X235571916Y-89997876D01*
X235897211Y-90209125D01*
X236242806Y-90385214D01*
X236604913Y-90524214D01*
X236979567Y-90624602D01*
X237183201Y-90656854D01*
X237359414Y-90684764D01*
X237359422Y-90684765D01*
X237362662Y-90685278D01*
X237750000Y-90705578D01*
X238137338Y-90685278D01*
X238140578Y-90684765D01*
X238140586Y-90684764D01*
X238316799Y-90656854D01*
X238520433Y-90624602D01*
X238895087Y-90524214D01*
X239257194Y-90385214D01*
X239602789Y-90209125D01*
X239928084Y-89997876D01*
X240229516Y-89753781D01*
X240503781Y-89479516D01*
X240747876Y-89178084D01*
X240959125Y-88852789D01*
X241135214Y-88507194D01*
X241274214Y-88145087D01*
X241374602Y-87770433D01*
X241408724Y-87554993D01*
X241434764Y-87390586D01*
X241434765Y-87390578D01*
X241435278Y-87387338D01*
X241455578Y-87000000D01*
X241435278Y-86612662D01*
X241374602Y-86229567D01*
X241274214Y-85854913D01*
X241135214Y-85492806D01*
X240959125Y-85147211D01*
X240747876Y-84821916D01*
X240503781Y-84520484D01*
X240229516Y-84246219D01*
X239928084Y-84002124D01*
X239602789Y-83790875D01*
X239257194Y-83614786D01*
X238895087Y-83475786D01*
X238520433Y-83375398D01*
X238316799Y-83343146D01*
X238140586Y-83315236D01*
X238140578Y-83315235D01*
X238137338Y-83314722D01*
X237750000Y-83294422D01*
X237362662Y-83314722D01*
X237359422Y-83315235D01*
X237359414Y-83315236D01*
X237183201Y-83343146D01*
X236979567Y-83375398D01*
X236604913Y-83475786D01*
X236242806Y-83614786D01*
X235897211Y-83790875D01*
X235571916Y-84002124D01*
X235270484Y-84246219D01*
X234996219Y-84520484D01*
X234752124Y-84821916D01*
X234540875Y-85147211D01*
X234364786Y-85492806D01*
X234225786Y-85854913D01*
X234125398Y-86229567D01*
X234064722Y-86612662D01*
X234044422Y-87000000D01*
X122205578Y-87000000D01*
X122185278Y-86612662D01*
X122124602Y-86229567D01*
X122024214Y-85854913D01*
X121885214Y-85492806D01*
X121709125Y-85147211D01*
X121497876Y-84821916D01*
X121253781Y-84520484D01*
X120979516Y-84246219D01*
X120678084Y-84002124D01*
X120352789Y-83790875D01*
X120007194Y-83614786D01*
X119645087Y-83475786D01*
X119270433Y-83375398D01*
X119066799Y-83343146D01*
X118890586Y-83315236D01*
X118890578Y-83315235D01*
X118887338Y-83314722D01*
X118500000Y-83294422D01*
X118112662Y-83314722D01*
X118109422Y-83315235D01*
X118109414Y-83315236D01*
X117933201Y-83343146D01*
X117729567Y-83375398D01*
X117354913Y-83475786D01*
X116992806Y-83614786D01*
X116647211Y-83790875D01*
X116321916Y-84002124D01*
X116020484Y-84246219D01*
X115746219Y-84520484D01*
X115502124Y-84821916D01*
X115290875Y-85147211D01*
X115114786Y-85492806D01*
X114975786Y-85854913D01*
X114875398Y-86229567D01*
X114814722Y-86612662D01*
X114794422Y-87000000D01*
X112500000Y-87000000D01*
X112500000Y-82626000D01*
X112520002Y-82557879D01*
X112573658Y-82511386D01*
X112626000Y-82500000D01*
X242374000Y-82500000D01*
X242442121Y-82520002D01*
G37*
%TD.AperFunction*%
%TD*%
M02*
