%TF.GenerationSoftware,KiCad,Pcbnew,(6.0.8)*%
%TF.CreationDate,2022-10-31T04:01:03-03:00*%
%TF.ProjectId,pwr_mgmt,7077725f-6d67-46d7-942e-6b696361645f,0*%
%TF.SameCoordinates,Original*%
%TF.FileFunction,Drillmap*%
%TF.FilePolarity,Positive*%
%FSLAX45Y45*%
G04 Gerber Fmt 4.5, Leading zero omitted, Abs format (unit mm)*
G04 Created by KiCad (PCBNEW (6.0.8)) date 2022-10-31 04:01:03*
%MOMM*%
%LPD*%
G01*
G04 APERTURE LIST*
%ADD10C,0.100000*%
%ADD11C,0.200000*%
G04 APERTURE END LIST*
D10*
X11100000Y-8000000D02*
X24500000Y-8000000D01*
X24500000Y-8000000D02*
X24500000Y-16000000D01*
X24500000Y-16000000D02*
X11100000Y-16000000D01*
X11100000Y-16000000D02*
X11100000Y-8000000D01*
D11*
X11352619Y-16315476D02*
X11352619Y-16115476D01*
X11400238Y-16115476D01*
X11428809Y-16125000D01*
X11447857Y-16144048D01*
X11457381Y-16163095D01*
X11466905Y-16201190D01*
X11466905Y-16229762D01*
X11457381Y-16267857D01*
X11447857Y-16286905D01*
X11428809Y-16305952D01*
X11400238Y-16315476D01*
X11352619Y-16315476D01*
X11552619Y-16315476D02*
X11552619Y-16182143D01*
X11552619Y-16220238D02*
X11562143Y-16201190D01*
X11571667Y-16191667D01*
X11590714Y-16182143D01*
X11609762Y-16182143D01*
X11676428Y-16315476D02*
X11676428Y-16182143D01*
X11676428Y-16115476D02*
X11666905Y-16125000D01*
X11676428Y-16134524D01*
X11685952Y-16125000D01*
X11676428Y-16115476D01*
X11676428Y-16134524D01*
X11800238Y-16315476D02*
X11781190Y-16305952D01*
X11771667Y-16286905D01*
X11771667Y-16115476D01*
X11905000Y-16315476D02*
X11885952Y-16305952D01*
X11876428Y-16286905D01*
X11876428Y-16115476D01*
X12133571Y-16315476D02*
X12133571Y-16115476D01*
X12200238Y-16258333D01*
X12266905Y-16115476D01*
X12266905Y-16315476D01*
X12447857Y-16315476D02*
X12447857Y-16210714D01*
X12438333Y-16191667D01*
X12419286Y-16182143D01*
X12381190Y-16182143D01*
X12362143Y-16191667D01*
X12447857Y-16305952D02*
X12428809Y-16315476D01*
X12381190Y-16315476D01*
X12362143Y-16305952D01*
X12352619Y-16286905D01*
X12352619Y-16267857D01*
X12362143Y-16248809D01*
X12381190Y-16239286D01*
X12428809Y-16239286D01*
X12447857Y-16229762D01*
X12543095Y-16182143D02*
X12543095Y-16382143D01*
X12543095Y-16191667D02*
X12562143Y-16182143D01*
X12600238Y-16182143D01*
X12619286Y-16191667D01*
X12628809Y-16201190D01*
X12638333Y-16220238D01*
X12638333Y-16277381D01*
X12628809Y-16296428D01*
X12619286Y-16305952D01*
X12600238Y-16315476D01*
X12562143Y-16315476D01*
X12543095Y-16305952D01*
X12724048Y-16296428D02*
X12733571Y-16305952D01*
X12724048Y-16315476D01*
X12714524Y-16305952D01*
X12724048Y-16296428D01*
X12724048Y-16315476D01*
X12724048Y-16191667D02*
X12733571Y-16201190D01*
X12724048Y-16210714D01*
X12714524Y-16201190D01*
X12724048Y-16191667D01*
X12724048Y-16210714D01*
M02*
