%TF.GenerationSoftware,KiCad,Pcbnew,(6.0.8)*%
%TF.CreationDate,2022-10-31T04:00:38-03:00*%
%TF.ProjectId,pwr_mgmt,7077725f-6d67-46d7-942e-6b696361645f,0*%
%TF.SameCoordinates,Original*%
%TF.FileFunction,Legend,Top*%
%TF.FilePolarity,Positive*%
%FSLAX46Y46*%
G04 Gerber Fmt 4.6, Leading zero omitted, Abs format (unit mm)*
G04 Created by KiCad (PCBNEW (6.0.8)) date 2022-10-31 04:00:38*
%MOMM*%
%LPD*%
G01*
G04 APERTURE LIST*
%ADD10C,0.150000*%
%ADD11C,0.120000*%
G04 APERTURE END LIST*
D10*
%TO.C,REF\u002A\u002A*%
X145922857Y-98816380D02*
X145922857Y-97816380D01*
X146256190Y-98530666D01*
X146589523Y-97816380D01*
X146589523Y-98816380D01*
X146922857Y-97816380D02*
X147494285Y-97816380D01*
X147208571Y-98816380D02*
X147208571Y-97816380D01*
X147732380Y-97816380D02*
X148351428Y-97816380D01*
X148018095Y-98197333D01*
X148160952Y-98197333D01*
X148256190Y-98244952D01*
X148303809Y-98292571D01*
X148351428Y-98387809D01*
X148351428Y-98625904D01*
X148303809Y-98721142D01*
X148256190Y-98768761D01*
X148160952Y-98816380D01*
X147875238Y-98816380D01*
X147780000Y-98768761D01*
X147732380Y-98721142D01*
X149208571Y-97816380D02*
X149018095Y-97816380D01*
X148922857Y-97864000D01*
X148875238Y-97911619D01*
X148780000Y-98054476D01*
X148732380Y-98244952D01*
X148732380Y-98625904D01*
X148780000Y-98721142D01*
X148827619Y-98768761D01*
X148922857Y-98816380D01*
X149113333Y-98816380D01*
X149208571Y-98768761D01*
X149256190Y-98721142D01*
X149303809Y-98625904D01*
X149303809Y-98387809D01*
X149256190Y-98292571D01*
X149208571Y-98244952D01*
X149113333Y-98197333D01*
X148922857Y-98197333D01*
X148827619Y-98244952D01*
X148780000Y-98292571D01*
X148732380Y-98387809D01*
X149922857Y-97816380D02*
X150018095Y-97816380D01*
X150113333Y-97864000D01*
X150160952Y-97911619D01*
X150208571Y-98006857D01*
X150256190Y-98197333D01*
X150256190Y-98435428D01*
X150208571Y-98625904D01*
X150160952Y-98721142D01*
X150113333Y-98768761D01*
X150018095Y-98816380D01*
X149922857Y-98816380D01*
X149827619Y-98768761D01*
X149780000Y-98721142D01*
X149732380Y-98625904D01*
X149684761Y-98435428D01*
X149684761Y-98197333D01*
X149732380Y-98006857D01*
X149780000Y-97911619D01*
X149827619Y-97864000D01*
X149922857Y-97816380D01*
X150827619Y-98244952D02*
X150732380Y-98197333D01*
X150684761Y-98149714D01*
X150637142Y-98054476D01*
X150637142Y-98006857D01*
X150684761Y-97911619D01*
X150732380Y-97864000D01*
X150827619Y-97816380D01*
X151018095Y-97816380D01*
X151113333Y-97864000D01*
X151160952Y-97911619D01*
X151208571Y-98006857D01*
X151208571Y-98054476D01*
X151160952Y-98149714D01*
X151113333Y-98197333D01*
X151018095Y-98244952D01*
X150827619Y-98244952D01*
X150732380Y-98292571D01*
X150684761Y-98340190D01*
X150637142Y-98435428D01*
X150637142Y-98625904D01*
X150684761Y-98721142D01*
X150732380Y-98768761D01*
X150827619Y-98816380D01*
X151018095Y-98816380D01*
X151113333Y-98768761D01*
X151160952Y-98721142D01*
X151208571Y-98625904D01*
X151208571Y-98435428D01*
X151160952Y-98340190D01*
X151113333Y-98292571D01*
X151018095Y-98244952D01*
X151637142Y-98435428D02*
X152399047Y-98435428D01*
X152875238Y-98816380D02*
X152875238Y-97816380D01*
X153208571Y-98530666D01*
X153541904Y-97816380D01*
X153541904Y-98816380D01*
X154160952Y-98816380D02*
X154065714Y-98768761D01*
X154018095Y-98721142D01*
X153970476Y-98625904D01*
X153970476Y-98340190D01*
X154018095Y-98244952D01*
X154065714Y-98197333D01*
X154160952Y-98149714D01*
X154303809Y-98149714D01*
X154399047Y-98197333D01*
X154446666Y-98244952D01*
X154494285Y-98340190D01*
X154494285Y-98625904D01*
X154446666Y-98721142D01*
X154399047Y-98768761D01*
X154303809Y-98816380D01*
X154160952Y-98816380D01*
X155351428Y-98816380D02*
X155351428Y-97816380D01*
X155351428Y-98768761D02*
X155256190Y-98816380D01*
X155065714Y-98816380D01*
X154970476Y-98768761D01*
X154922857Y-98721142D01*
X154875238Y-98625904D01*
X154875238Y-98340190D01*
X154922857Y-98244952D01*
X154970476Y-98197333D01*
X155065714Y-98149714D01*
X155256190Y-98149714D01*
X155351428Y-98197333D01*
X156256190Y-98149714D02*
X156256190Y-98816380D01*
X155827619Y-98149714D02*
X155827619Y-98673523D01*
X155875238Y-98768761D01*
X155970476Y-98816380D01*
X156113333Y-98816380D01*
X156208571Y-98768761D01*
X156256190Y-98721142D01*
X156875238Y-98816380D02*
X156780000Y-98768761D01*
X156732380Y-98673523D01*
X156732380Y-97816380D01*
X157637142Y-98768761D02*
X157541904Y-98816380D01*
X157351428Y-98816380D01*
X157256190Y-98768761D01*
X157208571Y-98673523D01*
X157208571Y-98292571D01*
X157256190Y-98197333D01*
X157351428Y-98149714D01*
X157541904Y-98149714D01*
X157637142Y-98197333D01*
X157684761Y-98292571D01*
X157684761Y-98387809D01*
X157208571Y-98483047D01*
X158955714Y-92736380D02*
X159289047Y-93736380D01*
X159622380Y-92736380D01*
X159955714Y-93736380D02*
X159955714Y-92736380D01*
X160431904Y-93736380D02*
X160431904Y-92736380D01*
X161003333Y-93736380D01*
X161003333Y-92736380D01*
X161479523Y-93355428D02*
X162241428Y-93355428D01*
X161860476Y-93736380D02*
X161860476Y-92974476D01*
X143049047Y-103150380D02*
X143382380Y-104150380D01*
X143715714Y-103150380D01*
X144239523Y-103150380D02*
X144430000Y-103150380D01*
X144525238Y-103198000D01*
X144620476Y-103293238D01*
X144668095Y-103483714D01*
X144668095Y-103817047D01*
X144620476Y-104007523D01*
X144525238Y-104102761D01*
X144430000Y-104150380D01*
X144239523Y-104150380D01*
X144144285Y-104102761D01*
X144049047Y-104007523D01*
X144001428Y-103817047D01*
X144001428Y-103483714D01*
X144049047Y-103293238D01*
X144144285Y-103198000D01*
X144239523Y-103150380D01*
X145096666Y-103150380D02*
X145096666Y-103959904D01*
X145144285Y-104055142D01*
X145191904Y-104102761D01*
X145287142Y-104150380D01*
X145477619Y-104150380D01*
X145572857Y-104102761D01*
X145620476Y-104055142D01*
X145668095Y-103959904D01*
X145668095Y-103150380D01*
X146001428Y-103150380D02*
X146572857Y-103150380D01*
X146287142Y-104150380D02*
X146287142Y-103150380D01*
X146906190Y-103769428D02*
X147668095Y-103769428D01*
X158955714Y-102896380D02*
X159289047Y-103896380D01*
X159622380Y-102896380D01*
X159955714Y-103896380D02*
X159955714Y-102896380D01*
X160431904Y-103896380D02*
X160431904Y-102896380D01*
X161003333Y-103896380D01*
X161003333Y-102896380D01*
X161479523Y-103515428D02*
X162241428Y-103515428D01*
X142795047Y-92736380D02*
X143128380Y-93736380D01*
X143461714Y-92736380D01*
X143985523Y-92736380D02*
X144176000Y-92736380D01*
X144271238Y-92784000D01*
X144366476Y-92879238D01*
X144414095Y-93069714D01*
X144414095Y-93403047D01*
X144366476Y-93593523D01*
X144271238Y-93688761D01*
X144176000Y-93736380D01*
X143985523Y-93736380D01*
X143890285Y-93688761D01*
X143795047Y-93593523D01*
X143747428Y-93403047D01*
X143747428Y-93069714D01*
X143795047Y-92879238D01*
X143890285Y-92784000D01*
X143985523Y-92736380D01*
X144842666Y-92736380D02*
X144842666Y-93545904D01*
X144890285Y-93641142D01*
X144937904Y-93688761D01*
X145033142Y-93736380D01*
X145223619Y-93736380D01*
X145318857Y-93688761D01*
X145366476Y-93641142D01*
X145414095Y-93545904D01*
X145414095Y-92736380D01*
X145747428Y-92736380D02*
X146318857Y-92736380D01*
X146033142Y-93736380D02*
X146033142Y-92736380D01*
X146652190Y-93355428D02*
X147414095Y-93355428D01*
X147033142Y-93736380D02*
X147033142Y-92974476D01*
%TO.C,USB_CHRG\u002A\u002A*%
X147567880Y-147107976D02*
X147567880Y-146536547D01*
X148567880Y-146822261D02*
X147567880Y-146822261D01*
X148567880Y-146203214D02*
X147567880Y-146203214D01*
X147567880Y-145822261D01*
X147615500Y-145727023D01*
X147663119Y-145679404D01*
X147758357Y-145631785D01*
X147901214Y-145631785D01*
X147996452Y-145679404D01*
X148044071Y-145727023D01*
X148091690Y-145822261D01*
X148091690Y-146203214D01*
X147901214Y-144774642D02*
X148567880Y-144774642D01*
X147520261Y-145012738D02*
X148234547Y-145250833D01*
X148234547Y-144631785D01*
X147567880Y-144060357D02*
X147567880Y-143965119D01*
X147615500Y-143869880D01*
X147663119Y-143822261D01*
X147758357Y-143774642D01*
X147948833Y-143727023D01*
X148186928Y-143727023D01*
X148377404Y-143774642D01*
X148472642Y-143822261D01*
X148520261Y-143869880D01*
X148567880Y-143965119D01*
X148567880Y-144060357D01*
X148520261Y-144155595D01*
X148472642Y-144203214D01*
X148377404Y-144250833D01*
X148186928Y-144298452D01*
X147948833Y-144298452D01*
X147758357Y-144250833D01*
X147663119Y-144203214D01*
X147615500Y-144155595D01*
X147567880Y-144060357D01*
X147567880Y-142822261D02*
X147567880Y-143298452D01*
X148044071Y-143346071D01*
X147996452Y-143298452D01*
X147948833Y-143203214D01*
X147948833Y-142965119D01*
X147996452Y-142869880D01*
X148044071Y-142822261D01*
X148139309Y-142774642D01*
X148377404Y-142774642D01*
X148472642Y-142822261D01*
X148520261Y-142869880D01*
X148567880Y-142965119D01*
X148567880Y-143203214D01*
X148520261Y-143298452D01*
X148472642Y-143346071D01*
X147567880Y-141917500D02*
X147567880Y-142107976D01*
X147615500Y-142203214D01*
X147663119Y-142250833D01*
X147805976Y-142346071D01*
X147996452Y-142393690D01*
X148377404Y-142393690D01*
X148472642Y-142346071D01*
X148520261Y-142298452D01*
X148567880Y-142203214D01*
X148567880Y-142012738D01*
X148520261Y-141917500D01*
X148472642Y-141869880D01*
X148377404Y-141822261D01*
X148139309Y-141822261D01*
X148044071Y-141869880D01*
X147996452Y-141917500D01*
X147948833Y-142012738D01*
X147948833Y-142203214D01*
X147996452Y-142298452D01*
X148044071Y-142346071D01*
X148139309Y-142393690D01*
X148186928Y-141393690D02*
X148186928Y-140631785D01*
X148567880Y-139631785D02*
X148567880Y-140203214D01*
X148567880Y-139917500D02*
X147567880Y-139917500D01*
X147710738Y-140012738D01*
X147805976Y-140107976D01*
X147853595Y-140203214D01*
X147996452Y-139060357D02*
X147948833Y-139155595D01*
X147901214Y-139203214D01*
X147805976Y-139250833D01*
X147758357Y-139250833D01*
X147663119Y-139203214D01*
X147615500Y-139155595D01*
X147567880Y-139060357D01*
X147567880Y-138869880D01*
X147615500Y-138774642D01*
X147663119Y-138727023D01*
X147758357Y-138679404D01*
X147805976Y-138679404D01*
X147901214Y-138727023D01*
X147948833Y-138774642D01*
X147996452Y-138869880D01*
X147996452Y-139060357D01*
X148044071Y-139155595D01*
X148091690Y-139203214D01*
X148186928Y-139250833D01*
X148377404Y-139250833D01*
X148472642Y-139203214D01*
X148520261Y-139155595D01*
X148567880Y-139060357D01*
X148567880Y-138869880D01*
X148520261Y-138774642D01*
X148472642Y-138727023D01*
X148377404Y-138679404D01*
X148186928Y-138679404D01*
X148091690Y-138727023D01*
X148044071Y-138774642D01*
X147996452Y-138869880D01*
X147567880Y-137822261D02*
X147567880Y-138012738D01*
X147615500Y-138107976D01*
X147663119Y-138155595D01*
X147805976Y-138250833D01*
X147996452Y-138298452D01*
X148377404Y-138298452D01*
X148472642Y-138250833D01*
X148520261Y-138203214D01*
X148567880Y-138107976D01*
X148567880Y-137917500D01*
X148520261Y-137822261D01*
X148472642Y-137774642D01*
X148377404Y-137727023D01*
X148139309Y-137727023D01*
X148044071Y-137774642D01*
X147996452Y-137822261D01*
X147948833Y-137917500D01*
X147948833Y-138107976D01*
X147996452Y-138203214D01*
X148044071Y-138250833D01*
X148139309Y-138298452D01*
X147567880Y-136822261D02*
X147567880Y-137298452D01*
X148044071Y-137346071D01*
X147996452Y-137298452D01*
X147948833Y-137203214D01*
X147948833Y-136965119D01*
X147996452Y-136869880D01*
X148044071Y-136822261D01*
X148139309Y-136774642D01*
X148377404Y-136774642D01*
X148472642Y-136822261D01*
X148520261Y-136869880D01*
X148567880Y-136965119D01*
X148567880Y-137203214D01*
X148520261Y-137298452D01*
X148472642Y-137346071D01*
X147567880Y-136155595D02*
X147567880Y-136060357D01*
X147615500Y-135965119D01*
X147663119Y-135917500D01*
X147758357Y-135869880D01*
X147948833Y-135822261D01*
X148186928Y-135822261D01*
X148377404Y-135869880D01*
X148472642Y-135917500D01*
X148520261Y-135965119D01*
X148567880Y-136060357D01*
X148567880Y-136155595D01*
X148520261Y-136250833D01*
X148472642Y-136298452D01*
X148377404Y-136346071D01*
X148186928Y-136393690D01*
X147948833Y-136393690D01*
X147758357Y-136346071D01*
X147663119Y-136298452D01*
X147615500Y-136250833D01*
X147567880Y-136155595D01*
X162915500Y-153379404D02*
X162867880Y-153474642D01*
X162867880Y-153617500D01*
X162915500Y-153760357D01*
X163010738Y-153855595D01*
X163105976Y-153903214D01*
X163296452Y-153950833D01*
X163439309Y-153950833D01*
X163629785Y-153903214D01*
X163725023Y-153855595D01*
X163820261Y-153760357D01*
X163867880Y-153617500D01*
X163867880Y-153522261D01*
X163820261Y-153379404D01*
X163772642Y-153331785D01*
X163439309Y-153331785D01*
X163439309Y-153522261D01*
X163867880Y-152903214D02*
X162867880Y-152903214D01*
X163867880Y-152331785D01*
X162867880Y-152331785D01*
X163867880Y-151855595D02*
X162867880Y-151855595D01*
X162867880Y-151617500D01*
X162915500Y-151474642D01*
X163010738Y-151379404D01*
X163105976Y-151331785D01*
X163296452Y-151284166D01*
X163439309Y-151284166D01*
X163629785Y-151331785D01*
X163725023Y-151379404D01*
X163820261Y-151474642D01*
X163867880Y-151617500D01*
X163867880Y-151855595D01*
X166586928Y-150798452D02*
X166586928Y-150036547D01*
X154744071Y-133265119D02*
X154791690Y-133122261D01*
X154839309Y-133074642D01*
X154934547Y-133027023D01*
X155077404Y-133027023D01*
X155172642Y-133074642D01*
X155220261Y-133122261D01*
X155267880Y-133217500D01*
X155267880Y-133598452D01*
X154267880Y-133598452D01*
X154267880Y-133265119D01*
X154315500Y-133169880D01*
X154363119Y-133122261D01*
X154458357Y-133074642D01*
X154553595Y-133074642D01*
X154648833Y-133122261D01*
X154696452Y-133169880D01*
X154744071Y-133265119D01*
X154744071Y-133598452D01*
X154886928Y-132598452D02*
X154886928Y-131836547D01*
X155267880Y-132217500D02*
X154505976Y-132217500D01*
X165367880Y-134969880D02*
X165367880Y-134779404D01*
X165415500Y-134684166D01*
X165510738Y-134588928D01*
X165701214Y-134541309D01*
X166034547Y-134541309D01*
X166225023Y-134588928D01*
X166320261Y-134684166D01*
X166367880Y-134779404D01*
X166367880Y-134969880D01*
X166320261Y-135065119D01*
X166225023Y-135160357D01*
X166034547Y-135207976D01*
X165701214Y-135207976D01*
X165510738Y-135160357D01*
X165415500Y-135065119D01*
X165367880Y-134969880D01*
X165701214Y-133684166D02*
X166367880Y-133684166D01*
X165701214Y-134112738D02*
X166225023Y-134112738D01*
X166320261Y-134065119D01*
X166367880Y-133969880D01*
X166367880Y-133827023D01*
X166320261Y-133731785D01*
X166272642Y-133684166D01*
X165701214Y-133350833D02*
X165701214Y-132969880D01*
X165367880Y-133207976D02*
X166225023Y-133207976D01*
X166320261Y-133160357D01*
X166367880Y-133065119D01*
X166367880Y-132969880D01*
X165986928Y-132636547D02*
X165986928Y-131874642D01*
X151386928Y-150898452D02*
X151386928Y-150136547D01*
X151767880Y-150517500D02*
X151005976Y-150517500D01*
X158544071Y-148360357D02*
X158591690Y-148217500D01*
X158639309Y-148169880D01*
X158734547Y-148122261D01*
X158877404Y-148122261D01*
X158972642Y-148169880D01*
X159020261Y-148217500D01*
X159067880Y-148312738D01*
X159067880Y-148693690D01*
X158067880Y-148693690D01*
X158067880Y-148360357D01*
X158115500Y-148265119D01*
X158163119Y-148217500D01*
X158258357Y-148169880D01*
X158353595Y-148169880D01*
X158448833Y-148217500D01*
X158496452Y-148265119D01*
X158544071Y-148360357D01*
X158544071Y-148693690D01*
X159067880Y-147265119D02*
X158544071Y-147265119D01*
X158448833Y-147312738D01*
X158401214Y-147407976D01*
X158401214Y-147598452D01*
X158448833Y-147693690D01*
X159020261Y-147265119D02*
X159067880Y-147360357D01*
X159067880Y-147598452D01*
X159020261Y-147693690D01*
X158925023Y-147741309D01*
X158829785Y-147741309D01*
X158734547Y-147693690D01*
X158686928Y-147598452D01*
X158686928Y-147360357D01*
X158639309Y-147265119D01*
X158401214Y-146931785D02*
X158401214Y-146550833D01*
X158067880Y-146788928D02*
X158925023Y-146788928D01*
X159020261Y-146741309D01*
X159067880Y-146646071D01*
X159067880Y-146550833D01*
X158401214Y-146360357D02*
X158401214Y-145979404D01*
X158067880Y-146217500D02*
X158925023Y-146217500D01*
X159020261Y-146169880D01*
X159067880Y-146074642D01*
X159067880Y-145979404D01*
X159020261Y-145265119D02*
X159067880Y-145360357D01*
X159067880Y-145550833D01*
X159020261Y-145646071D01*
X158925023Y-145693690D01*
X158544071Y-145693690D01*
X158448833Y-145646071D01*
X158401214Y-145550833D01*
X158401214Y-145360357D01*
X158448833Y-145265119D01*
X158544071Y-145217500D01*
X158639309Y-145217500D01*
X158734547Y-145693690D01*
X159067880Y-144788928D02*
X158401214Y-144788928D01*
X158591690Y-144788928D02*
X158496452Y-144741309D01*
X158448833Y-144693690D01*
X158401214Y-144598452D01*
X158401214Y-144503214D01*
X158401214Y-144265119D02*
X159067880Y-144027023D01*
X158401214Y-143788928D02*
X159067880Y-144027023D01*
X159305976Y-144122261D01*
X159353595Y-144169880D01*
X159401214Y-144265119D01*
X158972642Y-142074642D02*
X159020261Y-142122261D01*
X159067880Y-142265119D01*
X159067880Y-142360357D01*
X159020261Y-142503214D01*
X158925023Y-142598452D01*
X158829785Y-142646071D01*
X158639309Y-142693690D01*
X158496452Y-142693690D01*
X158305976Y-142646071D01*
X158210738Y-142598452D01*
X158115500Y-142503214D01*
X158067880Y-142360357D01*
X158067880Y-142265119D01*
X158115500Y-142122261D01*
X158163119Y-142074642D01*
X159067880Y-141646071D02*
X158067880Y-141646071D01*
X159067880Y-141217500D02*
X158544071Y-141217500D01*
X158448833Y-141265119D01*
X158401214Y-141360357D01*
X158401214Y-141503214D01*
X158448833Y-141598452D01*
X158496452Y-141646071D01*
X159067880Y-140312738D02*
X158544071Y-140312738D01*
X158448833Y-140360357D01*
X158401214Y-140455595D01*
X158401214Y-140646071D01*
X158448833Y-140741309D01*
X159020261Y-140312738D02*
X159067880Y-140407976D01*
X159067880Y-140646071D01*
X159020261Y-140741309D01*
X158925023Y-140788928D01*
X158829785Y-140788928D01*
X158734547Y-140741309D01*
X158686928Y-140646071D01*
X158686928Y-140407976D01*
X158639309Y-140312738D01*
X159067880Y-139836547D02*
X158401214Y-139836547D01*
X158591690Y-139836547D02*
X158496452Y-139788928D01*
X158448833Y-139741309D01*
X158401214Y-139646071D01*
X158401214Y-139550833D01*
X158401214Y-138788928D02*
X159210738Y-138788928D01*
X159305976Y-138836547D01*
X159353595Y-138884166D01*
X159401214Y-138979404D01*
X159401214Y-139122261D01*
X159353595Y-139217500D01*
X159020261Y-138788928D02*
X159067880Y-138884166D01*
X159067880Y-139074642D01*
X159020261Y-139169880D01*
X158972642Y-139217500D01*
X158877404Y-139265119D01*
X158591690Y-139265119D01*
X158496452Y-139217500D01*
X158448833Y-139169880D01*
X158401214Y-139074642D01*
X158401214Y-138884166D01*
X158448833Y-138788928D01*
X159020261Y-137931785D02*
X159067880Y-138027023D01*
X159067880Y-138217500D01*
X159020261Y-138312738D01*
X158925023Y-138360357D01*
X158544071Y-138360357D01*
X158448833Y-138312738D01*
X158401214Y-138217500D01*
X158401214Y-138027023D01*
X158448833Y-137931785D01*
X158544071Y-137884166D01*
X158639309Y-137884166D01*
X158734547Y-138360357D01*
X159067880Y-137455595D02*
X158401214Y-137455595D01*
X158591690Y-137455595D02*
X158496452Y-137407976D01*
X158448833Y-137360357D01*
X158401214Y-137265119D01*
X158401214Y-137169880D01*
X159067880Y-135550833D02*
X159067880Y-136122261D01*
X159067880Y-135836547D02*
X158067880Y-135836547D01*
X158210738Y-135931785D01*
X158305976Y-136027023D01*
X158353595Y-136122261D01*
X158782166Y-135169880D02*
X158782166Y-134693690D01*
X159067880Y-135265119D02*
X158067880Y-134931785D01*
X159067880Y-134598452D01*
X162344071Y-133265119D02*
X162391690Y-133122261D01*
X162439309Y-133074642D01*
X162534547Y-133027023D01*
X162677404Y-133027023D01*
X162772642Y-133074642D01*
X162820261Y-133122261D01*
X162867880Y-133217500D01*
X162867880Y-133598452D01*
X161867880Y-133598452D01*
X161867880Y-133265119D01*
X161915500Y-133169880D01*
X161963119Y-133122261D01*
X162058357Y-133074642D01*
X162153595Y-133074642D01*
X162248833Y-133122261D01*
X162296452Y-133169880D01*
X162344071Y-133265119D01*
X162344071Y-133598452D01*
X162486928Y-132598452D02*
X162486928Y-131836547D01*
X153267880Y-152860357D02*
X153267880Y-153336547D01*
X153744071Y-153384166D01*
X153696452Y-153336547D01*
X153648833Y-153241309D01*
X153648833Y-153003214D01*
X153696452Y-152907976D01*
X153744071Y-152860357D01*
X153839309Y-152812738D01*
X154077404Y-152812738D01*
X154172642Y-152860357D01*
X154220261Y-152907976D01*
X154267880Y-153003214D01*
X154267880Y-153241309D01*
X154220261Y-153336547D01*
X154172642Y-153384166D01*
X153601214Y-152479404D02*
X154267880Y-152241309D01*
X153601214Y-152003214D01*
X157553595Y-152269880D02*
X157553595Y-153079404D01*
X157601214Y-153174642D01*
X157648833Y-153222261D01*
X157744071Y-153269880D01*
X157934547Y-153269880D01*
X158029785Y-153222261D01*
X158077404Y-153174642D01*
X158125023Y-153079404D01*
X158125023Y-152269880D01*
X158553595Y-153222261D02*
X158696452Y-153269880D01*
X158934547Y-153269880D01*
X159029785Y-153222261D01*
X159077404Y-153174642D01*
X159125023Y-153079404D01*
X159125023Y-152984166D01*
X159077404Y-152888928D01*
X159029785Y-152841309D01*
X158934547Y-152793690D01*
X158744071Y-152746071D01*
X158648833Y-152698452D01*
X158601214Y-152650833D01*
X158553595Y-152555595D01*
X158553595Y-152460357D01*
X158601214Y-152365119D01*
X158648833Y-152317500D01*
X158744071Y-152269880D01*
X158982166Y-152269880D01*
X159125023Y-152317500D01*
X159886928Y-152746071D02*
X160029785Y-152793690D01*
X160077404Y-152841309D01*
X160125023Y-152936547D01*
X160125023Y-153079404D01*
X160077404Y-153174642D01*
X160029785Y-153222261D01*
X159934547Y-153269880D01*
X159553595Y-153269880D01*
X159553595Y-152269880D01*
X159886928Y-152269880D01*
X159982166Y-152317500D01*
X160029785Y-152365119D01*
X160077404Y-152460357D01*
X160077404Y-152555595D01*
X160029785Y-152650833D01*
X159982166Y-152698452D01*
X159886928Y-152746071D01*
X159553595Y-152746071D01*
X150767880Y-134969880D02*
X150767880Y-134779404D01*
X150815500Y-134684166D01*
X150910738Y-134588928D01*
X151101214Y-134541309D01*
X151434547Y-134541309D01*
X151625023Y-134588928D01*
X151720261Y-134684166D01*
X151767880Y-134779404D01*
X151767880Y-134969880D01*
X151720261Y-135065119D01*
X151625023Y-135160357D01*
X151434547Y-135207976D01*
X151101214Y-135207976D01*
X150910738Y-135160357D01*
X150815500Y-135065119D01*
X150767880Y-134969880D01*
X151101214Y-133684166D02*
X151767880Y-133684166D01*
X151101214Y-134112738D02*
X151625023Y-134112738D01*
X151720261Y-134065119D01*
X151767880Y-133969880D01*
X151767880Y-133827023D01*
X151720261Y-133731785D01*
X151672642Y-133684166D01*
X151101214Y-133350833D02*
X151101214Y-132969880D01*
X150767880Y-133207976D02*
X151625023Y-133207976D01*
X151720261Y-133160357D01*
X151767880Y-133065119D01*
X151767880Y-132969880D01*
X151386928Y-132636547D02*
X151386928Y-131874642D01*
X151767880Y-132255595D02*
X151005976Y-132255595D01*
D11*
%TO.C,REF\u002A\u002A*%
X171000000Y-105000000D02*
X171000000Y-92000000D01*
X169000000Y-90000000D02*
X136000000Y-90000000D01*
X136000000Y-107000000D02*
X169000000Y-107000000D01*
X134000000Y-92000000D02*
X134000000Y-105000000D01*
X136000000Y-90000000D02*
G75*
G03*
X134000000Y-92000000I-1J-1999999D01*
G01*
X171000000Y-92000000D02*
G75*
G03*
X169000000Y-90000000I-2000000J0D01*
G01*
X169000000Y-107000000D02*
G75*
G03*
X171000000Y-105000000I0J2000000D01*
G01*
X134000000Y-105000000D02*
G75*
G03*
X136000000Y-107000000I2000000J0D01*
G01*
X115400000Y-143200000D02*
X117300000Y-143200000D01*
X127300000Y-132350000D02*
X114700000Y-132350000D01*
X117100000Y-142700000D02*
X122500000Y-142700000D01*
X115650000Y-142700000D02*
X115400000Y-143200000D01*
X114700000Y-132350000D02*
X114700000Y-142700000D01*
X122500000Y-142700000D02*
X122200000Y-143200000D01*
X117350000Y-143200000D02*
X117100000Y-142700000D01*
X127300000Y-143200000D02*
X127300000Y-132350000D01*
X117300000Y-143200000D02*
X117350000Y-143200000D01*
X122200000Y-143200000D02*
X127300000Y-143200000D01*
X114700000Y-142700000D02*
X115650000Y-142700000D01*
D10*
%TO.C,USB_CHRG\u002A\u002A*%
X152215500Y-126017500D02*
X152215500Y-128317500D01*
X156915500Y-151517500D02*
X160715500Y-151517500D01*
X165115500Y-128317500D02*
X165115500Y-128017500D01*
X149715500Y-126017500D02*
X152215500Y-126017500D01*
X152215500Y-128317500D02*
X165115500Y-128317500D01*
X156915500Y-154017500D02*
X156915500Y-151517500D01*
X167515500Y-154417500D02*
X149715500Y-154417500D01*
X167515500Y-126017500D02*
X167515500Y-154417500D01*
X149715500Y-128117500D02*
X149715500Y-126017500D01*
X160715500Y-151517500D02*
X160715500Y-154017500D01*
X165115500Y-126017500D02*
X165415500Y-126017500D01*
X165115500Y-128117500D02*
X165115500Y-126017500D01*
X149715500Y-154417500D02*
X149715500Y-128117500D01*
X165415500Y-126017500D02*
X167515500Y-126017500D01*
X160715500Y-154017500D02*
X157015500Y-154017500D01*
D11*
%TO.C,REF\u002A\u002A*%
X117100000Y-102935000D02*
X122500000Y-102935000D01*
X122200000Y-103435000D02*
X127300000Y-103435000D01*
X115400000Y-103435000D02*
X117300000Y-103435000D01*
X122500000Y-102935000D02*
X122200000Y-103435000D01*
X114700000Y-102935000D02*
X115650000Y-102935000D01*
X117300000Y-103435000D02*
X117350000Y-103435000D01*
X114700000Y-92585000D02*
X114700000Y-102935000D01*
X127300000Y-103435000D02*
X127300000Y-92585000D01*
X115650000Y-102935000D02*
X115400000Y-103435000D01*
X127300000Y-92585000D02*
X114700000Y-92585000D01*
X117350000Y-103435000D02*
X117100000Y-102935000D01*
%TD*%
M02*
